<?xml version="1.0" encoding="UTF-8" standalone="no"?>
<!-- Created with Inkscape (http://www.inkscape.org/) -->

<svg
   width="16"
   height="16"
   viewBox="0 0 16 16"
   version="1.1"
   id="svg1"
   xmlns="http://www.w3.org/2000/svg"
   xmlns:svg="http://www.w3.org/2000/svg">
  <defs
     id="defs1" />
  <g
     id="layer1"
     transform="translate(-389.99999)">
    <path
       d="m 394.45898,0 c -0.0772,0 -0.15229,0.00202053 -0.22851,0.00585938 -0.0762,0.00383884 -0.15337,0.00999243 -0.22852,0.01757812 -0.0751,0.0075857 -0.14868,0.01610321 -0.22265,0.02734375 -0.074,0.01124054 -0.148,0.02425913 -0.22071,0.0390625 -0.14542,0.02960675 -0.28791,0.06606893 -0.42773,0.109375 -0.13982,0.0433061 -0.27668,0.0941213 -0.41016,0.15039063 -0.13348,0.0562694 -0.26422,0.11900336 -0.39062,0.18749999 -0.12641,0.0684966 -0.2486,0.14266839 -0.36719,0.22265625 -0.11859,0.0799879 -0.2337,0.16511631 -0.34375,0.25585938 -0.11004,0.090743 -0.21564,0.1863471 -0.31641,0.2871094 -0.10076,0.1007622 -0.19636,0.2063608 -0.28711,0.3164062 -0.0907,0.1100454 -0.17587,0.2251575 -0.25585,0.34375 -0.08,0.1185925 -0.15416,0.240784 -0.22266,0.3671875 -0.0685,0.1264036 -0.13123,0.2571464 -0.1875,0.390625 -0.0563,0.1334786 -0.10709,0.2703387 -0.15039,0.4101563 -0.0433,0.1398176 -0.0798,0.2823137 -0.10938,0.4277344 -0.0148,0.07271 -0.0278,0.14673 -0.0391,0.2207031 -0.0112,0.073973 -0.0198,0.1475124 -0.0273,0.2226562 -0.008,0.075144 -0.0137,0.1522931 -0.0176,0.2285156 -0.004,0.076223 -0.006,0.1513064 -0.006,0.2285157 v 7.0820316 c 0,0.07721 0.002,0.152293 0.006,0.228515 0.004,0.07622 0.01,0.153372 0.0176,0.228516 0.008,0.07514 0.0161,0.148683 0.0273,0.222656 0.0112,0.07397 0.0243,0.147993 0.0391,0.220703 0.0296,0.145421 0.0661,0.287917 0.10938,0.427735 0.0433,0.139817 0.0941,0.276677 0.15039,0.410156 0.0563,0.133478 0.119,0.264221 0.1875,0.390625 0.0685,0.126403 0.14267,0.248595 0.22266,0.367187 0.08,0.118593 0.16511,0.233705 0.25585,0.34375 0.0908,0.110046 0.18635,0.215644 0.28711,0.316407 0.10077,0.100762 0.20637,0.196366 0.31641,0.287109 0.11005,0.09074 0.22516,0.175872 0.34375,0.255859 0.11859,0.07999 0.24078,0.15416 0.36719,0.222657 0.1264,0.0685 0.25714,0.13123 0.39062,0.1875 0.13348,0.05627 0.27034,0.107084 0.41016,0.15039 0.13982,0.04331 0.28231,0.07977 0.42773,0.109375 0.0727,0.0148 0.14673,0.02782 0.22071,0.03906 0.074,0.01124 0.14751,0.01976 0.22265,0.02734 0.0751,0.0076 0.1523,0.01374 0.22852,0.01758 0.0762,0.0038 0.15131,0.0059 0.22851,0.0059 h 7.08204 c 0.0772,0 0.15229,-0.002 0.22851,-0.0059 0.0762,-0.0038 0.15337,-0.01 0.22852,-0.01758 0.0751,-0.0076 0.14868,-0.0161 0.22265,-0.02734 0.074,-0.01124 0.148,-0.02426 0.22071,-0.03906 0.14542,-0.02961 0.28791,-0.06607 0.42773,-0.109375 0.13982,-0.04331 0.27668,-0.09412 0.41016,-0.15039 0.13348,-0.05627 0.26422,-0.119004 0.39062,-0.1875 0.12641,-0.0685 0.2486,-0.142669 0.36719,-0.222657 0.11859,-0.07999 0.2337,-0.165116 0.34375,-0.255859 0.11004,-0.09074 0.21564,-0.186347 0.31641,-0.287109 0.10076,-0.100763 0.19636,-0.206361 0.2871,-0.316407 0.0908,-0.110045 0.17588,-0.225157 0.25586,-0.34375 0.08,-0.118592 0.15416,-0.240784 0.22266,-0.367187 0.0685,-0.126404 0.13123,-0.257147 0.1875,-0.390625 0.0563,-0.133479 0.10709,-0.270339 0.15039,-0.410156 0.0433,-0.139818 0.0798,-0.282314 0.10938,-0.427735 0.0148,-0.07271 0.0278,-0.14673 0.0391,-0.220703 0.0112,-0.07397 0.0198,-0.147512 0.0273,-0.222656 0.008,-0.07514 0.0137,-0.152293 0.0176,-0.228516 0.004,-0.07622 0.006,-0.151306 0.006,-0.228515 V 4.4589844 c 0,-0.077209 -0.002,-0.1522931 -0.006,-0.2285157 -0.004,-0.076223 -0.01,-0.1533718 -0.0176,-0.2285156 -0.008,-0.075144 -0.0161,-0.1486832 -0.0273,-0.2226562 -0.0112,-0.073973 -0.0243,-0.1479928 -0.0391,-0.2207031 -0.0296,-0.1454207 -0.0661,-0.2879168 -0.10938,-0.4277344 -0.0433,-0.1398176 -0.0941,-0.2766777 -0.15039,-0.4101563 -0.0563,-0.1334786 -0.119,-0.2642214 -0.1875,-0.390625 -0.0685,-0.1264035 -0.14267,-0.248595 -0.22266,-0.3671875 -0.08,-0.1185925 -0.16511,-0.2337046 -0.25586,-0.34375 -0.0907,-0.1100454 -0.18634,-0.215644 -0.2871,-0.3164062 -0.10077,-0.1007623 -0.20637,-0.1963663 -0.31641,-0.2871094 -0.11005,-0.0907431 -0.22516,-0.17587151 -0.34375,-0.25585938 -0.11859,-0.0799879 -0.24078,-0.15415961 -0.36719,-0.22265625 -0.1264,-0.0684966 -0.25714,-0.13123063 -0.39062,-0.18749999 -0.13348,-0.0562694 -0.27034,-0.10708456 -0.41016,-0.15039063 -0.13982,-0.0433061 -0.28231,-0.0797683 -0.42773,-0.109375 -0.0727,-0.01480337 -0.14673,-0.02782196 -0.22071,-0.0390625 -0.074,-0.01124054 -0.14751,-0.01975806 -0.22265,-0.02734375 -0.0751,-0.0075857 -0.1523,-0.01373928 -0.22852,-0.01757812 C 401.69331,0.00202053 401.61822,0 401.54102,0 Z m -0.38476,3.0742188 a 1,1 0 0 1 0.38281,0.076172 1,1 0 0 1 0.32422,0.2167969 l 3.21875,3.21875 3.21875,-3.21875 a 1,1 0 0 1 0.32422,-0.2167969 1,1 0 0 1 0.38281,-0.076172 1,1 0 0 1 0.38281,0.076172 1,1 0 0 1 0.32422,0.2167969 1,1 0 0 1 0.0859,0.097656 1,1 0 0 1 0.0723,0.109375 1,1 0 0 1 0.0586,0.1171875 1,1 0 0 1 0.041,0.125 1,1 0 0 1 0.0274,0.1269531 1,1 0 0 1 0.008,0.1308593 1,1 0 0 1 -0.008,0.1308594 1,1 0 0 1 -0.0274,0.1269531 1,1 0 0 1 -0.041,0.125 1,1 0 0 1 -0.0586,0.1171875 1,1 0 0 1 -0.0723,0.109375 1,1 0 0 1 -0.0859,0.097656 L 399.41406,8 l 3.21875,3.21875 a 1,1 0 0 1 0.0859,0.09766 1,1 0 0 1 0.0723,0.109375 1,1 0 0 1 0.0586,0.117188 1,1 0 0 1 0.041,0.125 1,1 0 0 1 0.0274,0.126953 1,1 0 0 1 0.008,0.130859 1,1 0 0 1 -0.008,0.13086 1,1 0 0 1 -0.0274,0.126953 1,1 0 0 1 -0.041,0.125 1,1 0 0 1 -0.0586,0.117187 1,1 0 0 1 -0.0723,0.109375 1,1 0 0 1 -0.0859,0.09766 1,1 0 0 1 -0.32422,0.216796 1,1 0 0 1 -0.38281,0.07617 1,1 0 0 1 -0.38281,-0.07617 1,1 0 0 1 -0.32422,-0.216796 L 398,9.4140625 394.78125,12.632813 a 1,1 0 0 1 -0.32422,0.216796 1,1 0 0 1 -0.38281,0.07617 1,1 0 0 1 -0.38281,-0.07617 1,1 0 0 1 -0.32422,-0.216796 1,1 0 0 1 -0.2168,-0.324219 1,1 0 0 1 -0.0762,-0.382813 1,1 0 0 1 0.0762,-0.382812 1,1 0 0 1 0.2168,-0.324219 L 396.58594,8 393.36719,4.78125 a 1,1 0 0 1 -0.2168,-0.3242188 1,1 0 0 1 -0.0762,-0.3828125 1,1 0 0 1 0.0762,-0.3828124 1,1 0 0 1 0.2168,-0.3242188 1,1 0 0 1 0.32422,-0.2167969 1,1 0 0 1 0.38281,-0.076172 z"
       style="fill:#333333;stroke-width:5;stroke-linecap:round;stroke-linejoin:round"
       id="path34" />
  </g>
</svg>
