<?xml version="1.0" encoding="UTF-8" standalone="no"?>
<!-- Created with Inkscape (http://www.inkscape.org/) -->

<svg
   width="16"
   height="16"
   viewBox="0 0 16 16"
   version="1.1"
   id="svg1"
   xmlns="http://www.w3.org/2000/svg"
   xmlns:svg="http://www.w3.org/2000/svg">
  <defs
     id="defs1" />
  <g
     id="layer1"
     transform="translate(-286)">
    <path
       d="m 288.45508,0 c -0.085,0 -0.17117,0.0053129 -0.25391,0.01367188 -0.0827,0.00836 -0.16213,0.01885531 -0.24219,0.03515624 -0.0801,0.01629995 -0.15934,0.03670397 -0.23632,0.06054688 -0.077,0.0238419 -0.15112,0.0510513 -0.22461,0.0820313 -0.0735,0.0309789 -0.14526,0.0658039 -0.21485,0.10351563 -0.0696,0.0377119 -0.13783,0.0790084 -0.20312,0.12304687 -0.0653,0.0440369 -0.12888,0.0926185 -0.18946,0.14257812 -0.0606,0.0499579 -0.11834,0.10077443 -0.17382,0.15625 -0.0555,0.0554748 -0.10629,0.11324217 -0.15625,0.17382813 -0.05,0.0605857 -0.0986,0.12416145 -0.14258,0.18945305 -0.044,0.065292 -0.0853,0.1335335 -0.12305,0.203125 -0.0377,0.069592 -0.0726,0.1413569 -0.10351,0.2148438 -0.031,0.073488 -0.0582,0.1476325 -0.082,0.2246093 -0.0238,0.076977 -0.0442,0.1562666 -0.0605,0.2363282 -0.0163,0.080062 -0.0268,0.1594461 -0.0352,0.2421876 C 286.00567,2.2839128 286,2.3700626 286,2.4550781 V 13.544922 c 0,0.08502 0.006,0.171165 0.0137,0.253906 0.008,0.08275 0.0189,0.162124 0.0352,0.242188 0.0163,0.08007 0.0367,0.15935 0.0605,0.236328 0.0238,0.07697 0.051,0.151121 0.082,0.224609 0.031,0.07349 0.0658,0.145252 0.10351,0.214844 0.0377,0.0696 0.079,0.137833 0.12305,0.203125 0.044,0.06529 0.0926,0.128864 0.14258,0.189453 0.05,0.06059 0.10077,0.118359 0.15625,0.173828 0.0555,0.05546 0.11325,0.106295 0.17382,0.15625 0.0606,0.04995 0.12417,0.09854 0.18946,0.142578 0.0653,0.04404 0.13353,0.08534 0.20312,0.123047 0.0696,0.03771 0.14136,0.07253 0.21485,0.103516 0.0735,0.03099 0.14763,0.05819 0.22461,0.08203 0.077,0.02383 0.15625,0.04425 0.23632,0.06055 0.0801,0.0163 0.16142,0.02681 0.24414,0.03516 0.0827,0.0084 0.16695,0.01367 0.25196,0.01367 h 11.08984 c 0.085,0 0.17117,-0.0053 0.25391,-0.01367 0.0827,-0.0084 0.16213,-0.01885 0.24219,-0.03516 0.0801,-0.01629 0.15935,-0.03672 0.23632,-0.06055 0.077,-0.02383 0.15112,-0.05104 0.22461,-0.08203 0.0735,-0.03099 0.14525,-0.06579 0.21485,-0.103516 0.0696,-0.03771 0.13783,-0.07901 0.20312,-0.123047 0.0653,-0.04403 0.12888,-0.09261 0.18945,-0.142578 0.0606,-0.04995 0.11836,-0.100777 0.17383,-0.15625 0.0555,-0.05546 0.10826,-0.113239 0.15821,-0.173828 0.0499,-0.06059 0.0966,-0.124156 0.14062,-0.189453 0.044,-0.06529 0.0854,-0.133536 0.12305,-0.203125 0.0377,-0.0696 0.0726,-0.141358 0.10351,-0.214844 0.031,-0.07349 0.0582,-0.147632 0.082,-0.224609 0.0238,-0.07697 0.0442,-0.156268 0.0605,-0.236328 0.0163,-0.08007 0.0268,-0.159446 0.0352,-0.242188 0.008,-0.08274 0.0137,-0.168892 0.0137,-0.253906 V 2.4550781 c 0,-0.085016 -0.006,-0.1711651 -0.0137,-0.2539062 -0.008,-0.082742 -0.0189,-0.1621258 -0.0352,-0.2421875 -0.0163,-0.080062 -0.0367,-0.1593512 -0.0605,-0.2363282 -0.0238,-0.076978 -0.051,-0.1511222 -0.082,-0.2246093 -0.031,-0.073488 -0.0658,-0.1452517 -0.10351,-0.2148438 -0.0377,-0.069592 -0.079,-0.1378335 -0.12305,-0.203125 -0.044,-0.065292 -0.0906,-0.12886754 -0.14062,-0.1894531 -0.05,-0.0605857 -0.10274,-0.11835284 -0.15821,-0.17382813 -0.0555,-0.0554747 -0.11324,-0.10824412 -0.17383,-0.15820312 -0.0606,-0.0499578 -0.12415,-0.0965882 -0.18945,-0.140625 -0.0653,-0.0440369 -0.13354,-0.0853354 -0.20312,-0.12304687 -0.0696,-0.0377109 -0.14136,-0.0725369 -0.21485,-0.10351563 -0.0735,-0.0309799 -0.14763,-0.0581893 -0.22461,-0.0820313 -0.077,-0.02384191 -0.15626,-0.04424593 -0.23632,-0.06054688 -0.0801,-0.01629993 -0.15945,-0.02680328 -0.24219,-0.03515624 C 299.71604,0.00531195 299.62994,0 299.54492,0 Z m 1.61914,3.0742188 a 1,1 0 0 1 0.38281,0.076172 1,1 0 0 1 0.32422,0.2167969 l 3.21875,3.21875 3.21875,-3.21875 a 1,1 0 0 1 0.32422,-0.2167969 1,1 0 0 1 0.38281,-0.076172 1,1 0 0 1 0.38281,0.076172 1,1 0 0 1 0.32422,0.2167969 1,1 0 0 1 0.0859,0.097656 1,1 0 0 1 0.0723,0.109375 1,1 0 0 1 0.0586,0.1171875 1,1 0 0 1 0.041,0.125 1,1 0 0 1 0.0274,0.1269531 1,1 0 0 1 0.008,0.1308593 1,1 0 0 1 -0.008,0.1308594 1,1 0 0 1 -0.0274,0.1269531 1,1 0 0 1 -0.041,0.125 1,1 0 0 1 -0.0586,0.1171875 1,1 0 0 1 -0.0723,0.109375 1,1 0 0 1 -0.0859,0.097656 L 295.41406,8 l 3.21875,3.21875 a 1,1 0 0 1 0.0859,0.09766 1,1 0 0 1 0.0723,0.109375 1,1 0 0 1 0.0586,0.117188 1,1 0 0 1 0.041,0.125 1,1 0 0 1 0.0274,0.126953 1,1 0 0 1 0.008,0.130859 1,1 0 0 1 -0.008,0.13086 1,1 0 0 1 -0.0274,0.126953 1,1 0 0 1 -0.041,0.125 1,1 0 0 1 -0.0586,0.117187 1,1 0 0 1 -0.0723,0.109375 1,1 0 0 1 -0.0859,0.09766 1,1 0 0 1 -0.32422,0.216796 1,1 0 0 1 -0.38281,0.07617 1,1 0 0 1 -0.38281,-0.07617 1,1 0 0 1 -0.32422,-0.216796 L 294,9.4140625 290.78125,12.632813 a 1,1 0 0 1 -0.32422,0.216796 1,1 0 0 1 -0.38281,0.07617 1,1 0 0 1 -0.38281,-0.07617 1,1 0 0 1 -0.32422,-0.216796 1,1 0 0 1 -0.2168,-0.324219 1,1 0 0 1 -0.0762,-0.382813 1,1 0 0 1 0.0762,-0.382812 1,1 0 0 1 0.2168,-0.324219 L 292.58594,8 289.36719,4.78125 a 1,1 0 0 1 -0.2168,-0.3242188 1,1 0 0 1 -0.0762,-0.3828125 1,1 0 0 1 0.0762,-0.3828124 1,1 0 0 1 0.2168,-0.3242188 1,1 0 0 1 0.32422,-0.2167969 1,1 0 0 1 0.38281,-0.076172 z"
       style="fill:#333333;stroke-width:5;stroke-linecap:round;stroke-linejoin:round"
       id="path18" />
  </g>
</svg>
