<?xml version="1.0" encoding="UTF-8" standalone="no"?>
<!-- Created with Inkscape (http://www.inkscape.org/) -->

<svg
   width="16"
   height="16"
   viewBox="0 0 16 16"
   version="1.1"
   id="svg1"
   xmlns="http://www.w3.org/2000/svg"
   xmlns:svg="http://www.w3.org/2000/svg">
  <defs
     id="defs1" />
  <g
     id="layer1"
     transform="translate(-260)">
    <path
       d="m 262.45508,0 c -0.085,0 -0.17117,0.0053129 -0.25391,0.01367188 -0.0827,0.00836 -0.16213,0.01885531 -0.24219,0.03515624 -0.0801,0.01629995 -0.15934,0.03670397 -0.23632,0.06054688 -0.077,0.0238419 -0.15112,0.0510513 -0.22461,0.0820313 -0.0735,0.0309789 -0.14526,0.0658039 -0.21485,0.10351563 -0.0696,0.0377119 -0.13783,0.0790084 -0.20312,0.12304687 -0.0653,0.0440369 -0.12888,0.0926185 -0.18946,0.14257812 -0.0606,0.0499579 -0.11834,0.10077443 -0.17382,0.15625 -0.0555,0.0554748 -0.10629,0.11324217 -0.15625,0.17382813 -0.05,0.0605857 -0.0986,0.12416145 -0.14258,0.18945305 -0.044,0.065292 -0.0853,0.1335334 -0.12305,0.203125 -0.0377,0.069592 -0.0726,0.1413568 -0.10351,0.2148438 -0.031,0.073488 -0.0582,0.1476325 -0.082,0.2246093 -0.0238,0.076977 -0.0442,0.1562666 -0.0605,0.2363282 -0.0163,0.080062 -0.0268,0.1594461 -0.0352,0.2421876 C 260.00531,2.2839124 260,2.3700626 260,2.4550781 V 13.544922 c 0,0.08502 0.006,0.171165 0.0137,0.253906 0.008,0.08275 0.0189,0.162124 0.0352,0.242188 0.0163,0.08007 0.0367,0.15935 0.0605,0.236328 0.0238,0.07697 0.051,0.151121 0.082,0.224609 0.031,0.07349 0.0658,0.145252 0.10351,0.214844 0.0377,0.0696 0.079,0.137833 0.12305,0.203125 0.044,0.06529 0.0926,0.128864 0.14258,0.189453 0.05,0.06059 0.10077,0.118359 0.15625,0.173828 0.0555,0.05546 0.11325,0.106295 0.17382,0.15625 0.0606,0.04995 0.12417,0.09854 0.18946,0.142578 0.0653,0.04404 0.13353,0.08534 0.20312,0.123047 0.0696,0.03771 0.14136,0.07253 0.21485,0.103516 0.0735,0.03099 0.14763,0.05819 0.22461,0.08203 0.077,0.02383 0.15625,0.04425 0.23632,0.06055 0.0801,0.0163 0.16142,0.02681 0.24414,0.03516 0.0827,0.0084 0.16695,0.01367 0.25196,0.01367 h 11.08984 c 0.085,0 0.17117,-0.0053 0.25391,-0.01367 0.0827,-0.0084 0.16213,-0.01885 0.24219,-0.03516 0.0801,-0.01629 0.15935,-0.03672 0.23632,-0.06055 0.077,-0.02383 0.15112,-0.05104 0.22461,-0.08203 0.0735,-0.03099 0.14525,-0.06579 0.21485,-0.103516 0.0696,-0.03771 0.13783,-0.07901 0.20312,-0.123047 0.0653,-0.04403 0.12888,-0.09261 0.18945,-0.142578 0.0606,-0.04995 0.11836,-0.100777 0.17383,-0.15625 0.0555,-0.05546 0.10826,-0.113239 0.15821,-0.173828 0.0499,-0.06059 0.0966,-0.124156 0.14062,-0.189453 0.044,-0.06529 0.0854,-0.133536 0.12305,-0.203125 0.0377,-0.0696 0.0726,-0.141358 0.10351,-0.214844 0.031,-0.07349 0.0582,-0.147632 0.082,-0.224609 0.0238,-0.07697 0.0442,-0.156268 0.0605,-0.236328 0.0163,-0.08007 0.0268,-0.159446 0.0352,-0.242188 0.008,-0.08274 0.0137,-0.168892 0.0137,-0.253906 V 2.4550781 c 0,-0.085016 -0.006,-0.1711651 -0.0137,-0.2539062 -0.008,-0.082742 -0.0189,-0.1621258 -0.0352,-0.2421875 -0.0163,-0.080062 -0.0367,-0.1593512 -0.0605,-0.2363282 -0.0238,-0.076978 -0.051,-0.1511222 -0.082,-0.2246093 -0.031,-0.073488 -0.0658,-0.1452517 -0.10351,-0.2148438 -0.0377,-0.069592 -0.079,-0.1378335 -0.12305,-0.203125 -0.044,-0.065292 -0.0906,-0.12886754 -0.14062,-0.1894531 -0.05,-0.0605857 -0.10274,-0.11835284 -0.15821,-0.17382813 -0.0555,-0.0554747 -0.11324,-0.10824412 -0.17383,-0.15820312 -0.0606,-0.0499578 -0.12415,-0.0965882 -0.18945,-0.140625 -0.0653,-0.0440369 -0.13354,-0.0853354 -0.20312,-0.12304687 -0.0696,-0.0377109 -0.14136,-0.0725369 -0.21485,-0.10351563 -0.0735,-0.0309799 -0.14763,-0.0581893 -0.22461,-0.0820313 -0.077,-0.02384191 -0.15626,-0.04424593 -0.23632,-0.06054688 -0.0801,-0.01629993 -0.15945,-0.02680328 -0.24219,-0.03515624 C 273.71604,0.00531195 273.62994,0 273.54492,0 Z m 9.80469,3.0898438 a 1,1 0 0 1 0.37695,0.1035156 1,1 0 0 1 0.30859,0.2382812 1,1 0 0 1 0.0781,0.1054688 1,1 0 0 1 0.0645,0.1132812 1,1 0 0 1 0.0508,0.1210938 1,1 0 0 1 0.0332,0.1269531 1,1 0 0 1 0.0156,0.1308594 1,1 0 0 1 0,0.1308593 1,1 0 0 1 -0.0176,0.1289063 1,1 0 0 1 -0.0351,0.1269531 1,1 0 0 1 -0.0508,0.1210938 1,1 0 0 1 -0.0664,0.1113281 1,1 0 0 1 -0.082,0.1035156 1,1 0 0 1 -0.0918,0.091797 c -0.24398,0.2114335 -0.48465,0.4275597 -0.7207,0.6445312 -0.23606,0.2169716 -0.46816,0.4362409 -0.69532,0.65625 -0.22715,0.2200092 -0.44874,0.4396098 -0.66601,0.6601563 -0.21728,0.2205465 -0.4303,0.4415728 -0.63672,0.6601562 -0.20642,0.2185835 -0.40697,0.4362706 -0.60156,0.6503907 -0.19459,0.21412 -0.38267,0.423703 -0.56446,0.6308594 -0.18178,0.2071563 -0.35739,0.4116827 -0.52539,0.609375 -0.168,0.1976922 -0.32918,0.3884909 -0.48242,0.5742187 -0.30648,0.3714554 -0.58264,0.7167944 -0.82422,1.0253904 -0.24157,0.308596 -0.44832,0.580907 -0.61718,0.806641 -0.33773,0.451467 -0.52149,0.716797 -0.52149,0.716797 a 1.0001,1.0001 0 0 1 -0.2832,0.27539 1.0001,1.0001 0 0 1 -0.36719,0.142578 1.0001,1.0001 0 0 1 -0.39258,-0.0098 1.0001,1.0001 0 0 1 -0.35937,-0.160156 1.0001,1.0001 0 0 1 -0.27149,-0.28711 1.0001,1.0001 0 0 1 -0.13672,-0.36914 c -0.0372,-0.230259 -0.0745,-0.440553 -0.11132,-0.636719 -0.0368,-0.196167 -0.0729,-0.377953 -0.11133,-0.548828 -0.0385,-0.170876 -0.079,-0.32999 -0.1211,-0.484375 -0.0421,-0.154386 -0.0869,-0.302523 -0.13476,-0.449219 -0.0479,-0.1466966 -0.0987,-0.2935976 -0.1543,-0.4414063 -0.0556,-0.1478086 -0.11622,-0.2973565 -0.18164,-0.4550781 -0.13083,-0.3154433 -0.28254,-0.6604583 -0.46484,-1.0683594 a 1,1 0 0 1 -0.0879,-0.3808594 1,1 0 0 1 0.0664,-0.3847656 1,1 0 0 1 0.20703,-0.3300781 1,1 0 0 1 0.32032,-0.2265625 1,1 0 0 1 0.3789,-0.085937 1,1 0 0 1 0.38477,0.066406 1,1 0 0 1 0.33008,0.2070313 1,1 0 0 1 0.22656,0.3183594 c 0.0528,0.1181437 0.10143,0.2359992 0.14648,0.3515625 0.0451,0.1155632 0.0863,0.2306444 0.125,0.34375 0.0387,0.1131056 0.0737,0.2232135 0.10743,0.3339844 0.0337,0.1107708 0.0655,0.2215191 0.0957,0.3300781 0.0604,0.2171178 0.11531,0.4296643 0.16992,0.6386719 0.0546,0.2090075 0.10989,0.413354 0.16992,0.6152343 0.1429,-0.1889362 0.29723,-0.3902961 0.46485,-0.6054687 0.16761,-0.2151727 0.34775,-0.4431258 0.54101,-0.6816406 0.19327,-0.2385149 0.3993,-0.4890841 0.61914,-0.7480469 0.21985,-0.2589628 0.45382,-0.5262179 0.70117,-0.8027344 0.24736,-0.2765165 0.50936,-0.5603865 0.78516,-0.8515625 0.2758,-0.291176 0.56593,-0.5896369 0.87109,-0.8925781 0.30517,-0.3029413 0.62547,-0.6120159 0.96094,-0.9238282 0.16774,-0.1559061 0.33819,-0.3111688 0.51367,-0.4687499 0.17549,-0.1575812 0.35572,-0.3176681 0.53907,-0.4765625 a 1,1 0 0 1 0.33789,-0.1914063 1,1 0 0 1 0.38672,-0.050781 z"
       style="fill:#333333;stroke-width:5;stroke-linecap:round;stroke-linejoin:round"
       id="path15" />
  </g>
</svg>
