<?xml version="1.0" encoding="UTF-8" standalone="no"?>
<!-- Created with Inkscape (http://www.inkscape.org/) -->

<svg
   width="24"
   height="24"
   viewBox="0 0 24 24"
   version="1.1"
   id="svg1"
   xmlns="http://www.w3.org/2000/svg"
   xmlns:svg="http://www.w3.org/2000/svg">
  <defs
     id="defs1" />
  <g
     id="layer1"
     transform="translate(-150)">
    <path
       style="color:#000000;fill:#333333;stroke-width:0.827585;stroke-linecap:round;stroke-linejoin:round;-inkscape-stroke:none"
       d="M 152.06897,0.0448325 A 2.0689654,2.0689654 0 0 0 150,2.1137979 a 2.0689654,2.0689654 0 0 0 2.06897,2.0689654 h 19.86206 A 2.0689654,2.0689654 0 0 0 174,2.1137979 2.0689654,2.0689654 0 0 0 171.93103,0.0448325 Z"
       id="path13-4" />
    <path
       style="color:#000000;fill:#333333;stroke-width:0.827585;stroke-linecap:round;stroke-linejoin:round;-inkscape-stroke:none"
       d="M 152.06897,19.862069 A 2.0689654,2.0689654 0 0 0 150,21.931034 2.0689654,2.0689654 0 0 0 152.06897,24 h 19.86206 A 2.0689654,2.0689654 0 0 0 174,21.931034 2.0689654,2.0689654 0 0 0 171.93103,19.862069 Z"
       id="path15-3" />
    <path
       style="color:#000000;fill:#333333;stroke-width:0.827585;stroke-linecap:round;stroke-linejoin:round;-inkscape-stroke:none"
       d="M 152.06897,9.9310345 A 2.0689654,2.0689654 0 0 0 150,12 a 2.0689654,2.0689654 0 0 0 2.06897,2.068966 h 6.5043 A 2.0689654,2.0689654 0 0 0 160.64223,12 2.0689654,2.0689654 0 0 0 158.57327,9.9310345 Z"
       id="path16-0" />
    <path
       style="color:#000000;fill:#333333;stroke-width:0.827585;stroke-linecap:round;stroke-linejoin:round;-inkscape-stroke:none"
       d="M 165.42672,9.9310345 A 2.0689654,2.0689654 0 0 0 163.35775,12 a 2.0689654,2.0689654 0 0 0 2.06897,2.068966 h 6.50431 A 2.0689654,2.0689654 0 0 0 174,12 2.0689654,2.0689654 0 0 0 171.93103,9.9310345 Z"
       id="path17-3" />
  </g>
</svg>
