<?xml version="1.0" encoding="UTF-8" standalone="no"?>
<!-- Created with Inkscape (http://www.inkscape.org/) -->

<svg
   width="24"
   height="24"
   viewBox="0 0 24 24"
   version="1.1"
   id="svg1"
   xmlns="http://www.w3.org/2000/svg"
   xmlns:svg="http://www.w3.org/2000/svg">
  <defs
     id="defs1" />
  <g
     id="layer1"
     transform="translate(-1316)">
    <path
       style="color:#000000;fill:#333333;stroke-width:0.827585;stroke-linecap:round;stroke-linejoin:round;-inkscape-stroke:none"
       d="m 1318.069,2.0000001 a 2.0689654,2.0689654 0 0 0 -2.069,2.068965 2.0689654,2.0689654 0 0 0 2.069,2.068965 h 19.862 a 2.0689654,2.0689654 0 0 0 2.069,-2.068965 2.0689654,2.0689654 0 0 0 -2.069,-2.068965 z"
       id="path105" />
    <path
       style="color:#000000;fill:#333333;stroke-width:0.827585;stroke-linecap:round;stroke-linejoin:round;-inkscape-stroke:none"
       d="M 1318.069,17.862069 A 2.0689654,2.0689654 0 0 0 1316,19.931034 2.0689654,2.0689654 0 0 0 1318.069,22 h 19.862 a 2.0689654,2.0689654 0 0 0 2.069,-2.068966 2.0689654,2.0689654 0 0 0 -2.069,-2.068965 z"
       id="path106" />
    <path
       style="color:#000000;fill:#333333;stroke-width:0.827585;stroke-linecap:round;stroke-linejoin:round;-inkscape-stroke:none"
       d="M 1318.069,9.9310341 A 2.0689654,2.0689654 0 0 0 1316,12 a 2.0689654,2.0689654 0 0 0 2.069,2.068966 h 6.5043 A 2.0689654,2.0689654 0 0 0 1326.6422,12 2.0689654,2.0689654 0 0 0 1324.5733,9.9310341 Z"
       id="path107" />
    <path
       style="color:#000000;fill:#333333;stroke-width:0.827585;stroke-linecap:round;stroke-linejoin:round;-inkscape-stroke:none"
       d="M 1331.4267,9.9310341 A 2.0689654,2.0689654 0 0 0 1329.3577,12 a 2.0689654,2.0689654 0 0 0 2.069,2.068966 h 6.5043 A 2.0689654,2.0689654 0 0 0 1340,12 2.0689654,2.0689654 0 0 0 1337.931,9.9310341 Z"
       id="path108" />
  </g>
</svg>
