<?xml version="1.0" encoding="UTF-8" standalone="no"?>
<!-- Created with Inkscape (http://www.inkscape.org/) -->

<svg
   width="48"
   height="48"
   viewBox="0 0 48 48"
   version="1.1"
   id="svg1"
   xmlns="http://www.w3.org/2000/svg"
   xmlns:svg="http://www.w3.org/2000/svg">
  <defs
     id="defs1" />
  <g
     id="layer1"
     transform="translate(-276)">
    <path
       style="fill:#333333;stroke-width:5;stroke-linecap:round;stroke-linejoin:round"
       d="m 276,12.6875 h 48"
       id="path4" />
    <path
       style="color:#000000;fill:#333333;fill-opacity:1;stroke-width:1.59522;stroke-linecap:round;stroke-linejoin:round;-inkscape-stroke:none"
       d="M 279.98805,40.023886 A 3.9880572,3.9880572 0 0 0 276,44.011943 3.9880572,3.9880572 0 0 0 279.98805,48 h 40.0239 A 3.9880572,3.9880572 0 0 0 324,44.011943 3.9880572,3.9880572 0 0 0 320.01195,40.023886 Z"
       id="path9" />
    <path
       d="m 299.66625,0.00224109 c -0.31283,0.00836 -0.62244,0.052698 -0.92537,0.1339743 L 278.95619,5.4391324 c -0.40441,0.108381 -0.78924,0.279764 -1.14033,0.507858 -0.35143,0.227855 -0.66476,0.509647 -0.92848,0.835008 -0.26315,0.325449 -0.47346,0.690301 -0.62316,1.081146 -0.14979,0.391017 -0.23704,0.803187 -0.25859,1.221354 -0.0217,0.417653 0.0225,0.836118 0.13081,1.2400476 0.10831,0.404415 0.27975,0.789247 0.50784,1.140344 0.22786,0.351418 0.50965,0.664753 0.83501,0.928479 0.32546,0.263155 0.6903,0.473444 1.08115,0.623139 0.39102,0.149777 0.80319,0.237054 1.22135,0.258603 0.41765,0.02167 0.83613,-0.02249 1.24006,-0.130857 l 18.97777,-5.0879346 18.97771,5.0879336 c 0.40393,0.108364 0.82241,0.152536 1.24005,0.130857 0.41816,-0.02156 0.83034,-0.108811 1.22134,-0.258603 0.39085,-0.149696 0.75571,-0.359982 1.08117,-0.623139 0.32536,-0.263728 0.60714,-0.577061 0.83498,-0.928479 0.22811,-0.351099 0.3995,-0.735929 0.50787,-1.140344 0.0362,-0.13443 0.0652,-0.270675 0.0873,-0.4081566 0.0217,-0.137271 0.0364,-0.275593 0.0437,-0.414387 0.008,-0.139073 0.008,-0.278433 0,-0.417504 -0.008,-0.139838 -0.0217,-0.279198 -0.0437,-0.417504 -0.022,-0.137477 -0.051,-0.27372 -0.0873,-0.408156 -0.0357,-0.134031 -0.0784,-0.266108 -0.12778,-0.395694 -0.0504,-0.130665 -0.10752,-0.258584 -0.17138,-0.383229 -0.0631,-0.12403 -0.13288,-0.244674 -0.20875,-0.361422 -0.0752,-0.116309 -0.15617,-0.228624 -0.24302,-0.336495 -0.0879,-0.108699 -0.18154,-0.212701 -0.28041,-0.31157 -0.0989,-0.09781 -0.20295,-0.190363 -0.31156,-0.277297 -0.10784,-0.08786 -0.22013,-0.170018 -0.3365,-0.246141 -0.11678,-0.07583 -0.23739,-0.145517 -0.36143,-0.20875 -0.12458,-0.06381 -0.25257,-0.121015 -0.38324,-0.171364 -0.12952,-0.04944 -0.26166,-0.09208 -0.39567,-0.127747 L 301.25835,0.13621609 c -0.40393,-0.1083693 -0.82238,-0.1525286 -1.24004,-0.1308589 -0.006,0.00102 -0.0127,0.00206 -0.0187,0.00311 -0.006,-0.00105 -0.0127,-0.00209 -0.0187,-0.00311 -0.10433,-0.0054199982 -0.21041,-0.005909998 -0.31468,-0.00311 z"
       style="fill:#333333;fill-opacity:1;stroke-width:1.59524;stroke-linecap:round;stroke-linejoin:round"
       id="path20" />
    <path
       style="color:#000000;fill:#333333;fill-opacity:1;stroke-width:1.59522;stroke-linecap:round;stroke-linejoin:round;-inkscape-stroke:none"
       d="M 279.98805,22.921163 A 3.9880572,3.9880572 0 0 0 276,26.90922 a 3.9880572,3.9880572 0 0 0 3.98805,3.988057 h 40.0239 A 3.9880572,3.9880572 0 0 0 324,26.90922 3.9880572,3.9880572 0 0 0 320.01195,22.921163 Z"
       id="path18" />
  </g>
</svg>
