<?xml version="1.0" encoding="UTF-8" standalone="no"?>
<!-- Created with Inkscape (http://www.inkscape.org/) -->

<svg
   width="24"
   height="24"
   viewBox="0 0 24 24"
   version="1.1"
   id="svg1"
   inkscape:version="1.3 (0e150ed6c4, 2023-07-21)"
   sodipodi:docname="menu(Proyect).svg"
   xmlns:inkscape="http://www.inkscape.org/namespaces/inkscape"
   xmlns:sodipodi="http://sodipodi.sourceforge.net/DTD/sodipodi-0.dtd"
   xmlns="http://www.w3.org/2000/svg"
   xmlns:svg="http://www.w3.org/2000/svg">
  <sodipodi:namedview
     id="namedview1"
     pagecolor="#ffffff"
     bordercolor="#000000"
     borderopacity="0.25"
     inkscape:showpageshadow="2"
     inkscape:pageopacity="0.0"
     inkscape:pagecheckerboard="0"
     inkscape:deskcolor="#d1d1d1"
     inkscape:document-units="px"
     showguides="true"
     inkscape:zoom="2"
     inkscape:cx="72.5"
     inkscape:cy="70.5"
     inkscape:window-width="1336"
     inkscape:window-height="708"
     inkscape:window-x="0"
     inkscape:window-y="0"
     inkscape:window-maximized="1"
     inkscape:current-layer="layer1">
    <inkscape:page
       x="0"
       y="0"
       width="24"
       height="24"
       id="page3"
       margin="0"
       bleed="0" />
  </sodipodi:namedview>
  <defs
     id="defs1" />
  <g
     inkscape:label="Layer 1"
     inkscape:groupmode="layer"
     id="layer1"
     transform="translate(-242.00001)">
    <path
       style="color:#000000;fill:#333333;fill-opacity:1;stroke-width:0.79761;stroke-linecap:round;stroke-linejoin:round;-inkscape-stroke:none"
       d="M 243.99402,20.011943 A 1.9940286,1.9940286 0 0 0 242,22.005971 1.9940286,1.9940286 0 0 0 243.99402,24 h 20.01195 A 1.9940286,1.9940286 0 0 0 266,22.005971 1.9940286,1.9940286 0 0 0 264.00598,20.011943 Z"
       id="path21" />
    <path
       d="m 253.83312,0.00112054 c -0.15641,0.00418 -0.31122,0.02634901 -0.46268,0.06698715 l -9.89235,2.65145851 c -0.2022,0.05419 -0.39462,0.139882 -0.57016,0.253929 -0.17572,0.1139275 -0.33238,0.2548235 -0.46424,0.417504 -0.13158,0.1627245 -0.23673,0.3451505 -0.31158,0.540573 -0.0749,0.1955085 -0.11852,0.4015935 -0.1293,0.610677 -0.0109,0.2088265 0.0112,0.418059 0.0654,0.6200238 0.0541,0.2022075 0.13987,0.3946235 0.25392,0.570172 0.11393,0.175709 0.25482,0.3323765 0.4175,0.4642395 0.16273,0.1315775 0.34515,0.236722 0.54058,0.3115695 0.19551,0.074889 0.40159,0.118527 0.61067,0.1293015 0.20883,0.010835 0.41807,-0.011245 0.62003,-0.065429 l 9.48889,-2.5439673 9.48885,2.5439668 c 0.20197,0.054182 0.41121,0.076268 0.62003,0.065428 0.20908,-0.01078 0.41517,-0.054405 0.61067,-0.1293015 0.19542,-0.074848 0.37785,-0.179991 0.54059,-0.3115695 0.16267,-0.131864 0.30356,-0.2885305 0.41748,-0.4642395 0.11406,-0.1755495 0.19975,-0.3679645 0.25394,-0.570172 0.0181,-0.067215 0.0326,-0.1353375 0.0436,-0.2040783 0.0109,-0.068636 0.0182,-0.1377965 0.0219,-0.2071935 0.004,-0.069536 0.004,-0.1392165 0,-0.208752 -0.004,-0.069919 -0.0109,-0.139599 -0.0219,-0.208752 -0.011,-0.068739 -0.0255,-0.13686 -0.0436,-0.204078 -0.0179,-0.067016 -0.0392,-0.133054 -0.0639,-0.197847 -0.0252,-0.065333 -0.0538,-0.129292 -0.0857,-0.1916145 -0.0315,-0.062015 -0.0664,-0.122337 -0.10438,-0.180711 -0.0376,-0.058155 -0.0781,-0.114312 -0.12151,-0.1682475 -0.0439,-0.054349 -0.0908,-0.1063505 -0.1402,-0.155785 -0.0495,-0.048905 -0.10148,-0.095182 -0.15578,-0.1386485 -0.0539,-0.04393 -0.11007,-0.085009 -0.16825,-0.1230705 -0.0584,-0.037915 -0.11869,-0.072758 -0.18072,-0.104375 -0.0623,-0.031905 -0.12628,-0.060508 -0.19162,-0.085682 -0.0648,-0.02472 -0.13083,-0.04604 -0.19783,-0.063873 l -9.89233,-2.65145615 c -0.20196,-0.05418465 -0.41119,-0.0762643 -0.62002,-0.06542945 -0.003,5.1e-4 -0.006,0.00103 -0.009,0.001555 -0.003,-5.25e-4 -0.006,-0.001045 -0.009,-0.001555 -0.0522,-0.0027100041 -0.1052,-0.002955004 -0.15734,-0.001555 z"
       style="fill:#333333;fill-opacity:1;stroke-width:0.79762;stroke-linecap:round;stroke-linejoin:round"
       id="path22" />
    <path
       style="color:#000000;fill:#333333;fill-opacity:1;stroke-width:0.79761;stroke-linecap:round;stroke-linejoin:round;-inkscape-stroke:none"
       d="M 243.99402,11.460582 A 1.9940286,1.9940286 0 0 0 242,13.45461 a 1.9940286,1.9940286 0 0 0 1.99402,1.994029 h 20.01195 A 1.9940286,1.9940286 0 0 0 266,13.45461 1.9940286,1.9940286 0 0 0 264.00598,11.460582 Z"
       id="path23" />
  </g>
</svg>
