<?xml version="1.0" encoding="UTF-8" standalone="no"?>
<!-- Created with Inkscape (http://www.inkscape.org/) -->

<svg
   width="24"
   height="24"
   viewBox="0 0 24 24"
   version="1.1"
   id="svg1"
   xmlns="http://www.w3.org/2000/svg"
   xmlns:svg="http://www.w3.org/2000/svg">
  <defs
     id="defs1" />
  <g
     id="layer1"
     transform="translate(-1418)">
    <path
       style="color:#000000;fill:#333333;stroke-width:0.827585;stroke-linecap:round;stroke-linejoin:round;-inkscape-stroke:none"
       d="m 1420.069,2.0000001 a 2.0689654,2.0689654 0 0 0 -2.069,2.068965 2.0689654,2.0689654 0 0 0 2.069,2.068965 h 19.862 a 2.0689654,2.0689654 0 0 0 2.069,-2.068965 2.0689654,2.0689654 0 0 0 -2.069,-2.068965 z"
       id="path64" />
    <path
       style="color:#000000;fill:#333333;stroke-width:0.827585;stroke-linecap:round;stroke-linejoin:round;-inkscape-stroke:none"
       d="M 1420.069,17.862069 A 2.0689654,2.0689654 0 0 0 1418,19.931034 2.0689654,2.0689654 0 0 0 1420.069,22 h 19.862 a 2.0689654,2.0689654 0 0 0 2.069,-2.068966 2.0689654,2.0689654 0 0 0 -2.069,-2.068965 z"
       id="path65" />
    <path
       d="M 1427.957,14.068359 V 9.9316406 h -1.3828 -1.4082 -5.0976 c -0.09,-1.58e-5 -0.1802,0.00583 -0.2696,0.017578 -0.089,0.011744 -0.1783,0.029382 -0.2656,0.052734 -0.087,0.02349 -0.1727,0.05331 -0.2559,0.08789 -0.083,0.03458 -0.164,0.07392 -0.2421,0.11914 -0.079,0.04506 -0.1548,0.09559 -0.2266,0.150391 -0.072,0.0548 -0.139,0.113886 -0.2031,0.177734 -0.064,0.06383 -0.123,0.131684 -0.1778,0.203125 -0.055,0.07144 -0.1052,0.146471 -0.1504,0.22461 -0.045,0.07844 -0.086,0.160627 -0.121,0.24414 -0.035,0.08351 -0.063,0.168354 -0.086,0.25586 -0.024,0.08727 -0.041,0.17624 -0.053,0.265625 C 1418.006,11.819853 1418,11.909656 1418,12 c 0,0.09034 0.01,0.180147 0.018,0.269531 0.012,0.08939 0.03,0.178351 0.053,0.265625 0.024,0.08751 0.053,0.172346 0.088,0.25586 0.035,0.08351 0.074,0.165699 0.1191,0.24414 0.045,0.07814 0.096,0.153168 0.1504,0.22461 0.055,0.07144 0.114,0.139296 0.1778,0.203125 0.064,0.06385 0.1313,0.122929 0.2031,0.177734 0.072,0.0548 0.1481,0.105336 0.2266,0.150391 0.078,0.04522 0.159,0.08456 0.2421,0.11914 0.083,0.03458 0.1688,0.0644 0.2559,0.08789 0.087,0.02336 0.1762,0.04099 0.2656,0.05273 0.089,0.01174 0.1792,0.01759 0.2696,0.01758 h 5.0976 1.4082 z"
       style="fill:#333333;stroke-width:0.827585;stroke-linecap:round;stroke-linejoin:round"
       id="path70" />
    <path
       d="m 1432.043,9.9316406 v 4.1367184 h 1.3828 1.4082 5.0976 c 0.068,7.7e-5 0.1357,-0.0032 0.2032,-0.0098 0.067,-0.0065 0.1333,-0.0163 0.1992,-0.0293 0.066,-0.01304 0.1323,-0.02933 0.1973,-0.04883 0.065,-0.01964 0.1287,-0.04245 0.1914,-0.06836 0.063,-0.02627 0.1238,-0.0556 0.1836,-0.08789 0.059,-0.03165 0.1176,-0.0662 0.1738,-0.103516 0.057,-0.03764 0.1114,-0.07806 0.164,-0.121094 0.052,-0.04308 0.1026,-0.08871 0.1504,-0.136718 0.048,-0.04786 0.094,-0.09805 0.1368,-0.150391 0.042,-0.05207 0.082,-0.106173 0.1191,-0.162109 0.038,-0.05682 0.073,-0.115481 0.1055,-0.175782 0.032,-0.05976 0.06,-0.121028 0.086,-0.183593 0.026,-0.062 0.049,-0.125231 0.068,-0.189453 0.02,-0.06488 0.037,-0.130717 0.051,-0.197266 0.013,-0.06654 0.023,-0.133675 0.029,-0.201172 0.01,-0.06751 0.01,-0.135298 0.01,-0.203125 10e-5,-0.06783 2e-4,-0.135618 -0.01,-0.203125 -0.01,-0.0675 -0.016,-0.134635 -0.029,-0.201172 -0.014,-0.06655 -0.031,-0.132385 -0.051,-0.197265 -0.02,-0.06422 -0.043,-0.12745 -0.068,-0.189454 -0.026,-0.06256 -0.054,-0.123837 -0.086,-0.183593 -0.032,-0.0603 -0.068,-0.118967 -0.1055,-0.175782 -0.037,-0.05594 -0.077,-0.110037 -0.1191,-0.162109 -0.043,-0.05234 -0.089,-0.102531 -0.1368,-0.150391 -0.048,-0.04801 -0.098,-0.09364 -0.1504,-0.136718 -0.053,-0.04304 -0.1074,-0.08345 -0.164,-0.121094 -0.056,-0.03732 -0.1144,-0.07187 -0.1738,-0.103516 -0.06,-0.03229 -0.121,-0.06162 -0.1836,-0.08789 -0.063,-0.02591 -0.1267,-0.04872 -0.1914,-0.06836 -0.065,-0.0195 -0.1308,-0.035793 -0.1973,-0.048828 -0.066,-0.012993 -0.1324,-0.02277 -0.1992,-0.029297 -0.068,-0.00658 -0.1353,-0.00984 -0.2032,-0.00977 h -5.0976 -1.4082 z"
       style="font-variation-settings:'wght' 700;fill:#333333;stroke-width:2.50882;stroke-linecap:round;stroke-linejoin:round;paint-order:stroke markers fill"
       id="path71" />
  </g>
</svg>
