<?xml version="1.0" encoding="UTF-8" standalone="no"?>
<!-- Created with Inkscape (http://www.inkscape.org/) -->

<svg
   width="16"
   height="16"
   viewBox="0 0 16 16"
   version="1.1"
   id="svg1"
   xmlns="http://www.w3.org/2000/svg"
   xmlns:svg="http://www.w3.org/2000/svg">
  <defs
     id="defs1" />
  <g
     id="layer1"
     transform="translate(-363.99999)">
    <path
       d="m 368.45898,0 c -0.0772,0 -0.15229,0.00202053 -0.22851,0.00585938 -0.0762,0.00383884 -0.15337,0.00999243 -0.22852,0.01757812 -0.0751,0.0075857 -0.14868,0.01610321 -0.22265,0.02734375 -0.074,0.01124054 -0.148,0.02425913 -0.22071,0.0390625 -0.14542,0.02960675 -0.28791,0.06606893 -0.42773,0.109375 -0.13982,0.0433061 -0.27668,0.0941213 -0.41016,0.15039063 -0.13348,0.0562694 -0.26422,0.11900336 -0.39062,0.18749999 -0.12641,0.0684966 -0.2486,0.14266839 -0.36719,0.22265625 -0.11859,0.0799879 -0.2337,0.16511631 -0.34375,0.25585938 -0.11004,0.090743 -0.21564,0.1863471 -0.31641,0.2871094 -0.10076,0.1007622 -0.19636,0.2063608 -0.28711,0.3164062 -0.0907,0.1100454 -0.17587,0.2251575 -0.25585,0.34375 -0.08,0.1185925 -0.15416,0.240784 -0.22266,0.3671875 -0.0685,0.1264036 -0.13123,0.2571464 -0.1875,0.390625 -0.0563,0.1334786 -0.10709,0.2703387 -0.15039,0.4101563 -0.0433,0.1398176 -0.0798,0.2823137 -0.10938,0.4277344 -0.0148,0.07271 -0.0278,0.14673 -0.0391,0.2207031 -0.0112,0.073973 -0.0198,0.1475124 -0.0273,0.2226562 -0.008,0.075144 -0.0137,0.1522931 -0.0176,0.2285156 -0.004,0.076223 -0.006,0.1513064 -0.006,0.2285157 v 7.0820316 c 0,0.07721 0.002,0.152293 0.006,0.228515 0.004,0.07622 0.01,0.153372 0.0176,0.228516 0.008,0.07514 0.0161,0.148683 0.0273,0.222656 0.0112,0.07397 0.0243,0.147993 0.0391,0.220703 0.0296,0.145421 0.0661,0.287917 0.10938,0.427735 0.0433,0.139817 0.0941,0.276677 0.15039,0.410156 0.0563,0.133478 0.119,0.264221 0.1875,0.390625 0.0685,0.126403 0.14267,0.248595 0.22266,0.367187 0.08,0.118593 0.16511,0.233705 0.25585,0.34375 0.0908,0.110046 0.18635,0.215644 0.28711,0.316407 0.10077,0.100762 0.20637,0.196366 0.31641,0.287109 0.11005,0.09074 0.22516,0.175872 0.34375,0.255859 0.11859,0.07999 0.24078,0.15416 0.36719,0.222657 0.1264,0.0685 0.25714,0.13123 0.39062,0.1875 0.13348,0.05627 0.27034,0.107084 0.41016,0.15039 0.13982,0.04331 0.28231,0.07977 0.42773,0.109375 0.0727,0.0148 0.14673,0.02782 0.22071,0.03906 0.074,0.01124 0.14751,0.01976 0.22265,0.02734 0.0751,0.0076 0.1523,0.01374 0.22852,0.01758 0.0762,0.0038 0.15131,0.0059 0.22851,0.0059 h 7.08204 c 0.0772,0 0.15229,-0.002 0.22851,-0.0059 0.0762,-0.0038 0.15337,-0.01 0.22852,-0.01758 0.0751,-0.0076 0.14868,-0.0161 0.22265,-0.02734 0.074,-0.01124 0.148,-0.02426 0.22071,-0.03906 0.14542,-0.02961 0.28791,-0.06607 0.42773,-0.109375 0.13982,-0.04331 0.27668,-0.09412 0.41016,-0.15039 0.13348,-0.05627 0.26422,-0.119004 0.39062,-0.1875 0.12641,-0.0685 0.2486,-0.142669 0.36719,-0.222657 0.11859,-0.07999 0.2337,-0.165116 0.34375,-0.255859 0.11004,-0.09074 0.21564,-0.186347 0.31641,-0.287109 0.10076,-0.100763 0.19636,-0.206361 0.2871,-0.316407 0.0908,-0.110045 0.17588,-0.225157 0.25586,-0.34375 0.08,-0.118592 0.15416,-0.240784 0.22266,-0.367187 0.0685,-0.126404 0.13123,-0.257147 0.1875,-0.390625 0.0563,-0.133479 0.10709,-0.270339 0.15039,-0.410156 0.0433,-0.139818 0.0798,-0.282314 0.10938,-0.427735 0.0148,-0.07271 0.0278,-0.14673 0.0391,-0.220703 0.0112,-0.07397 0.0198,-0.147512 0.0273,-0.222656 0.008,-0.07514 0.0137,-0.152293 0.0176,-0.228516 0.004,-0.07622 0.006,-0.151306 0.006,-0.228515 V 4.4589844 c 0,-0.077209 -0.002,-0.1522931 -0.006,-0.2285157 -0.004,-0.076223 -0.01,-0.1533718 -0.0176,-0.2285156 -0.008,-0.075144 -0.0161,-0.1486832 -0.0273,-0.2226562 -0.0112,-0.073973 -0.0243,-0.1479928 -0.0391,-0.2207031 -0.0296,-0.1454207 -0.0661,-0.2879168 -0.10938,-0.4277344 -0.0433,-0.1398176 -0.0941,-0.2766777 -0.15039,-0.4101563 -0.0563,-0.1334786 -0.119,-0.2642214 -0.1875,-0.390625 -0.0685,-0.1264035 -0.14267,-0.248595 -0.22266,-0.3671875 -0.08,-0.1185925 -0.16511,-0.2337046 -0.25586,-0.34375 -0.0907,-0.1100454 -0.18634,-0.215644 -0.2871,-0.3164062 -0.10077,-0.1007623 -0.20637,-0.1963663 -0.31641,-0.2871094 -0.11005,-0.0907431 -0.22516,-0.17587151 -0.34375,-0.25585938 -0.11859,-0.0799879 -0.24078,-0.15415961 -0.36719,-0.22265625 -0.1264,-0.0684966 -0.25714,-0.13123063 -0.39062,-0.18749999 -0.13348,-0.0562694 -0.27034,-0.10708456 -0.41016,-0.15039063 -0.13982,-0.0433061 -0.28231,-0.0797683 -0.42773,-0.109375 -0.0727,-0.01480337 -0.14673,-0.02782196 -0.22071,-0.0390625 -0.074,-0.01124054 -0.14751,-0.01975806 -0.22265,-0.02734375 -0.0751,-0.0075857 -0.1523,-0.01373928 -0.22852,-0.01757812 C 375.69331,0.00202053 375.61822,0 375.54102,0 Z m 1.07618,2.1855469 h 5.08007 c 0.1108,0 0.2203,0.00474 0.32813,0.015625 0.10783,0.010886 0.21402,0.027585 0.31836,0.048828 0.10434,0.021243 0.20632,0.047052 0.30664,0.078125 0.10032,0.031073 0.19915,0.067048 0.29492,0.1074219 0.0958,0.040374 0.1886,0.085618 0.2793,0.1347656 0.0907,0.049147 0.17858,0.1027638 0.26367,0.1601563 0.0851,0.057392 0.16713,0.1184842 0.24609,0.1835937 0.079,0.06511 0.15427,0.1347328 0.22657,0.2070313 0.0723,0.072298 0.14192,0.1476032 0.20703,0.2265625 0.0651,0.078959 0.1262,0.1610018 0.18359,0.2460937 0.0574,0.085092 0.11101,0.1729754 0.16016,0.2636719 0.0491,0.090696 0.0944,0.183524 0.13476,0.2792968 0.0404,0.095773 0.0763,0.1946007 0.10742,0.2949219 0.0311,0.1003213 0.0569,0.2022992 0.0781,0.3066406 0.0212,0.1043415 0.0379,0.2105259 0.0488,0.3183594 0.0109,0.1078336 0.0156,0.2173275 0.0156,0.328125 v 5.0800785 c 0,0.110797 -0.005,0.220291 -0.0156,0.328125 -0.0109,0.107833 -0.0276,0.214018 -0.0488,0.318359 -0.0212,0.104342 -0.0471,0.208273 -0.0781,0.308594 -0.0311,0.100321 -0.067,0.197196 -0.10742,0.292969 -0.0404,0.09577 -0.0856,0.1886 -0.13476,0.279297 -0.0491,0.0907 -0.10277,0.180533 -0.16016,0.265625 -0.0574,0.08509 -0.11848,0.167134 -0.18359,0.246093 -0.0651,0.07896 -0.13474,0.154264 -0.20703,0.226563 -0.0723,0.0723 -0.14761,0.139968 -0.22657,0.205078 -0.079,0.06511 -0.161,0.128154 -0.24609,0.185547 -0.0851,0.05739 -0.17298,0.109056 -0.26367,0.158203 -0.0907,0.04915 -0.18353,0.09439 -0.2793,0.134766 -0.0958,0.04037 -0.1946,0.07635 -0.29492,0.107421 -0.10032,0.03107 -0.2023,0.05688 -0.30664,0.07813 -0.10434,0.02124 -0.21053,0.03794 -0.31836,0.04883 -0.10783,0.01089 -0.21733,0.01758 -0.32813,0.01758 h -5.08007 c -0.1108,0 -0.2203,-0.0067 -0.32813,-0.01758 -0.10783,-0.01089 -0.21402,-0.02759 -0.31836,-0.04883 -0.10434,-0.02124 -0.20827,-0.04705 -0.30859,-0.07813 -0.10032,-0.03107 -0.1972,-0.06705 -0.29297,-0.107421 -0.0958,-0.04038 -0.1886,-0.08562 -0.2793,-0.134766 -0.0907,-0.04915 -0.18053,-0.100811 -0.26562,-0.158203 -0.0851,-0.05739 -0.16714,-0.120438 -0.2461,-0.185547 -0.079,-0.06511 -0.15426,-0.13278 -0.22656,-0.205078 -0.0723,-0.0723 -0.13997,-0.147604 -0.20508,-0.226563 -0.0651,-0.07896 -0.12815,-0.161002 -0.18554,-0.246093 -0.0574,-0.08509 -0.10906,-0.174929 -0.15821,-0.265625 -0.0491,-0.0907 -0.0944,-0.183524 -0.13476,-0.279297 -0.0404,-0.09577 -0.0763,-0.192648 -0.10742,-0.292969 -0.0311,-0.100321 -0.0569,-0.204252 -0.0781,-0.308594 -0.0212,-0.104341 -0.0379,-0.210526 -0.0488,-0.318359 -0.0109,-0.107834 -0.0176,-0.217328 -0.0176,-0.328125 V 5.3847656 c 0,-0.1107975 0.007,-0.2202914 0.0176,-0.328125 0.0109,-0.1078335 0.0276,-0.2140179 0.0488,-0.3183594 0.0212,-0.1043414 0.047,-0.2063193 0.0781,-0.3066406 0.0311,-0.1003212 0.067,-0.199149 0.10742,-0.2949219 0.0404,-0.095773 0.0856,-0.1886004 0.13476,-0.2792968 0.0491,-0.090696 0.10081,-0.17858 0.15821,-0.2636719 0.0574,-0.085092 0.12043,-0.1671345 0.18554,-0.2460937 0.0651,-0.078959 0.13278,-0.1542641 0.20508,-0.2265625 0.0723,-0.072299 0.1476,-0.1419218 0.22656,-0.2070313 0.079,-0.06511 0.16101,-0.1262013 0.2461,-0.1835937 0.0851,-0.057393 0.17493,-0.1110089 0.26562,-0.1601563 0.0907,-0.049147 0.18353,-0.094391 0.2793,-0.1347656 0.0958,-0.040374 0.19265,-0.076349 0.29297,-0.1074219 0.10032,-0.031073 0.20425,-0.056882 0.30859,-0.078125 0.10434,-0.021243 0.21053,-0.037942 0.31836,-0.048828 0.10783,-0.010886 0.21733,-0.015625 0.32813,-0.015625 z"
       style="fill:#333333;stroke-width:5;stroke-linecap:round;stroke-linejoin:round"
       id="path32" />
  </g>
</svg>
