<?xml version="1.0" encoding="UTF-8" standalone="no"?>
<!-- Created with Inkscape (http://www.inkscape.org/) -->

<svg
   width="24"
   height="24"
   viewBox="0 0 24 24"
   version="1.1"
   id="svg1"
   xmlns="http://www.w3.org/2000/svg"
   xmlns:svg="http://www.w3.org/2000/svg">
  <defs
     id="defs1" />
  <g
     id="layer1"
     transform="translate(-368)">
    <path
       d="m 378.20312,0 c -0.0646,0.00174499 -0.12875,0.00752988 -0.19335,0.015625 -0.0646,0.0080951 -0.1292,0.01863678 -0.19336,0.03320312 -0.0642,0.01456635 -0.12814,0.03352883 -0.19141,0.0546875 -0.0633,0.0211587 -0.12558,0.0443935 -0.1875,0.0722656 -0.0619,0.0278721 -0.12348,0.0590434 -0.18359,0.09375 -0.0601,0.0347066 -0.11874,0.073597 -0.17383,0.11328125 -0.0551,0.0396843 -0.1063,0.0807901 -0.15625,0.125 -0.05,0.0442099 -0.0979,0.0903882 -0.14258,0.13867187 -0.0447,0.0482837 -0.0876,0.0984852 -0.12695,0.15039063 -0.0393,0.0519054 -0.0756,0.10508106 -0.10938,0.16015625 -0.0338,0.0550751 -0.0656,0.11212888 -0.0937,0.16992188 -0.0282,0.057793 -0.0518,0.1176755 -0.0742,0.1777344 -0.0224,0.060059 -0.042,0.1197678 -0.0586,0.1816406 -0.0166,0.061873 -0.0304,0.1262184 -0.041,0.1894531 -0.0106,0.063235 -0.0189,0.1253084 -0.0234,0.1894532 -0.004,0.064145 -0.006,0.1287565 -0.004,0.1933594 0.002,0.064603 0.008,0.1307035 0.0156,0.1953125 0.008,0.064609 0.0186,0.1291963 0.0332,0.1933593 0.0146,0.064163 0.0316,0.1281411 0.0527,0.1914063 0.0212,0.063265 0.0464,0.1255846 0.0742,0.1875 0.0279,0.061915 0.059,0.1234801 0.0937,0.1835937 l 5.18359,8.9804684 -5.19531,9 c -0.0347,0.06011 -0.0678,0.121679 -0.0957,0.183594 -0.0279,0.06192 -0.0511,0.124235 -0.0723,0.1875 -0.0211,0.06327 -0.0401,0.127243 -0.0547,0.191406 -0.0146,0.06416 -0.0251,0.128751 -0.0332,0.19336 -0.008,0.06461 -0.0119,0.130709 -0.0137,0.195312 -0.002,0.0646 -5.8e-4,0.129215 0.004,0.19336 0.004,0.06414 0.0109,0.126218 0.0215,0.189453 0.0106,0.06324 0.0244,0.12758 0.041,0.189453 0.0166,0.06187 0.0362,0.121581 0.0586,0.18164 0.0225,0.06006 0.048,0.119942 0.0762,0.177735 0.0282,0.05779 0.0599,0.114846 0.0937,0.169922 0.0338,0.05508 0.0701,0.108251 0.10938,0.160156 0.0393,0.05191 0.0803,0.102107 0.125,0.150391 0.0447,0.04828 0.0926,0.09446 0.14258,0.138671 0.0499,0.04421 0.1031,0.08532 0.1582,0.125 0.0551,0.03968 0.11176,0.07857 0.17187,0.113282 0.0601,0.03471 0.12168,0.06588 0.1836,0.09375 0.0619,0.02787 0.12423,0.05111 0.1875,0.07227 0.0633,0.02116 0.12724,0.04012 0.1914,0.05469 0.0642,0.01457 0.12875,0.02511 0.19336,0.0332 0.0646,0.0081 0.12876,0.01388 0.19336,0.01563 0.0646,0.0017 0.12922,5.78e-4 0.19336,-0.0039 0.0641,-0.0045 0.12817,-0.01285 0.19141,-0.02344 0.0632,-0.01059 0.12563,-0.02444 0.1875,-0.04102 0.0619,-0.01658 0.12353,-0.03615 0.18359,-0.05859 0.0601,-0.02245 0.11994,-0.04798 0.17774,-0.07617 0.0578,-0.02819 0.11289,-0.05798 0.16797,-0.0918 0.0551,-0.03381 0.1102,-0.07201 0.1621,-0.111328 0.0519,-0.03931 0.10211,-0.0803 0.1504,-0.125 0.0483,-0.0447 0.0945,-0.09262 0.13867,-0.142578 0.0442,-0.04996 0.0853,-0.103107 0.125,-0.158203 0.0397,-0.0551 0.0766,-0.111761 0.11133,-0.171875 l 5.75,-9.957031 c 0.0347,-0.06011 0.0659,-0.121679 0.0937,-0.183594 0.0279,-0.06192 0.0511,-0.124235 0.0723,-0.1875 0.0212,-0.06327 0.0401,-0.127243 0.0547,-0.191406 0.007,-0.03245 0.0119,-0.06506 0.0176,-0.09766 0.006,-0.02802 0.0128,-0.05572 0.0176,-0.08398 0.0106,-0.06323 0.017,-0.127262 0.0215,-0.191406 0.004,-0.06415 0.006,-0.128757 0.004,-0.19336 -0.002,-0.0646 -0.006,-0.12875 -0.0137,-0.193359 -0.008,-0.06461 -0.0206,-0.129196 -0.0351,-0.193359 -0.0146,-0.06416 -0.0316,-0.128142 -0.0527,-0.191407 -0.0212,-0.06327 -0.0463,-0.125584 -0.0742,-0.1875 -0.0279,-0.06192 -0.059,-0.12348 -0.0937,-0.183593 l -5.74804,-9.9570318 c -0.0347,-0.0601136 -0.0716,-0.11677932 -0.11133,-0.17187498 -0.0397,-0.0550957 -0.0827,-0.10824657 -0.12695,-0.15820313 -0.0442,-0.0499565 -0.0904,-0.0978818 -0.13868,-0.14257812 -0.0483,-0.0446963 -0.0985,-0.085685 -0.15039,-0.125 -0.0519,-0.039315 -0.10508,-0.0775155 -0.16015,-0.11132812 -0.0551,-0.0338126 -0.11213,-0.0636078 -0.16992,-0.0917969 -0.0578,-0.0281891 -0.11573,-0.0537274 -0.17579,-0.0761719 -0.06,-0.0224445 -0.12172,-0.04201497 -0.18359,-0.05859375 -0.0619,-0.01657877 -0.12426,-0.03042367 -0.1875,-0.04101562 -0.0632,-0.01059195 -0.12726,-0.01895347 -0.19141,-0.0234375 C 378.33234,-5.7777931e-4 378.26773,-0.00174499 378.20312,0 Z"
       style="fill:#333333;fill-opacity:1;stroke-width:0.870317"
       id="path9" />
  </g>
</svg>
