<?xml version="1.0" encoding="UTF-8" standalone="no"?>
<!-- Created with Inkscape (http://www.inkscape.org/) -->

<svg
   width="24"
   height="24"
   viewBox="0 0 24 24"
   version="1.1"
   id="svg1"
   xmlns="http://www.w3.org/2000/svg"
   xmlns:svg="http://www.w3.org/2000/svg">
  <defs
     id="defs1" />
  <g
     id="layer1"
     transform="translate(-1112)">
    <path
       style="color:#000000;fill:#333333;fill-opacity:1;stroke-width:2.31238;stroke-linecap:round;stroke-linejoin:round;-inkscape-stroke:none"
       d="m 1132.1734,1.2079384 c -6.7831,5.8781838 -11.2216,11.4220876 -13.8653,14.9175566 -0.5552,-1.867295 -0.9065,-3.857349 -1.8833,-6.042897 a 2.3123791,2.3123791 0 0 0 -3.0532,-1.1697401 2.3123791,2.3123791 0 0 0 -1.1696,3.0575791 c 1.6862,3.772891 2.2691,5.184156 2.9582,9.443719 a 2.3126105,2.3126105 0 0 0 4.1867,0.94392 c 0,0 6.8257,-9.831833 15.8524,-17.6544697 a 2.3123791,2.3123791 0 0 0 0.2349,-3.2653331 2.3123791,2.3123791 0 0 0 -3.2608,-0.2303348 z"
       id="path22" />
  </g>
</svg>
