<?xml version="1.0" encoding="UTF-8" standalone="no"?>
<!-- Created with Inkscape (http://www.inkscape.org/) -->

<svg
   width="24"
   height="24"
   viewBox="0 0 24 24"
   version="1.1"
   id="svg1"
   inkscape:version="1.3 (0e150ed6c4, 2023-07-21)"
   sodipodi:docname="menu(Proyect).svg"
   xmlns:inkscape="http://www.inkscape.org/namespaces/inkscape"
   xmlns:sodipodi="http://sodipodi.sourceforge.net/DTD/sodipodi-0.dtd"
   xmlns="http://www.w3.org/2000/svg"
   xmlns:svg="http://www.w3.org/2000/svg">
  <sodipodi:namedview
     id="namedview1"
     pagecolor="#ffffff"
     bordercolor="#000000"
     borderopacity="0.25"
     inkscape:showpageshadow="2"
     inkscape:pageopacity="0.0"
     inkscape:pagecheckerboard="0"
     inkscape:deskcolor="#d1d1d1"
     inkscape:document-units="px"
     showguides="true"
     inkscape:zoom="3.6203867"
     inkscape:cx="1223.0738"
     inkscape:cy="49.027912"
     inkscape:window-width="1366"
     inkscape:window-height="715"
     inkscape:window-x="0"
     inkscape:window-y="27"
     inkscape:window-maximized="1"
     inkscape:current-layer="g95">
    <inkscape:page
       x="0"
       y="0"
       width="24"
       height="24"
       id="page96"
       inkscape:export-filename="../Icons/Plains SVG's/pencil_icon_v2_unfill_24x24px.svg"
       inkscape:export-xdpi="96"
       inkscape:export-ydpi="96"
       margin="0"
       bleed="0" />
  </sodipodi:namedview>
  <defs
     id="defs1" />
  <g
     inkscape:label="Layer 1"
     inkscape:groupmode="layer"
     id="layer1"
     transform="translate(-1248)">
    <g
       id="g95">
      <g
         id="g96"
         transform="matrix(1.1586386,-1.1586386,1.1586386,1.1586386,-207.13608,1418.7462)">
        <path
           d="m 1218.9414,9.8886719 c -0.015,0.00131 -0.029,0.00434 -0.043,0.00781 -0.029,0.00631 -0.056,0.016842 -0.082,0.03125 l -1.041,0.6015621 -0.6875,0.396484 -0.098,0.05664 c -0.057,0.033 -0.106,0.07759 -0.1445,0.130859 -0.038,0.05314 -0.065,0.113685 -0.078,0.177735 -0.013,0.06375 -0.013,0.129607 0,0.193359 0.013,0.06473 0.04,0.125967 0.078,0.179688 0.039,0.05256 0.088,0.09647 0.1445,0.128906 l 0.096,0.05469 0.6895,0.398438 1.0449,0.603515 c 0.026,0.01445 0.053,0.02498 0.082,0.03125 0.029,0.007 0.058,0.0096 0.088,0.0078 h 9.334 c 0.1312,1.46e-4 0.2619,-0.01693 0.3887,-0.05078 0.1265,-0.03414 0.248,-0.0847 0.3613,-0.150391 0.1135,-0.06552 0.2179,-0.145631 0.3106,-0.238281 0.093,-0.09266 0.1727,-0.197068 0.2382,-0.310547 0.066,-0.113358 0.1163,-0.234835 0.1504,-0.361328 0.034,-0.126778 0.051,-0.257452 0.051,-0.388672 0,-0.04368 0,-0.08735 -0.01,-0.130859 0,-0.0432 -0.01,-0.08621 -0.018,-0.128907 -0.01,-0.04335 -0.016,-0.08636 -0.027,-0.128906 -0.011,-0.04222 -0.024,-0.08392 -0.039,-0.125 -0.015,-0.04109 -0.032,-0.08149 -0.051,-0.121094 -0.019,-0.03927 -0.039,-0.07772 -0.061,-0.115234 -0.022,-0.03812 -0.045,-0.07527 -0.07,-0.111328 -0.025,-0.03565 -0.052,-0.07019 -0.08,-0.103516 -0.028,-0.03316 -0.057,-0.06509 -0.088,-0.0957 -0.031,-0.03067 -0.063,-0.05999 -0.096,-0.08789 -0.034,-0.02823 -0.069,-0.05495 -0.1055,-0.08008 -0.035,-0.02501 -0.072,-0.04847 -0.1094,-0.07031 -0.037,-0.02184 -0.076,-0.04204 -0.1152,-0.06055 -0.04,-0.01869 -0.08,-0.03563 -0.1211,-0.050781 -0.041,-0.014834 -0.083,-0.027868 -0.125,-0.039063 -0.043,-0.010998 -0.086,-0.020122 -0.1289,-0.027344 -0.043,-0.00772 -0.086,-0.013586 -0.1289,-0.017578 -0.043,-0.00386 -0.087,-0.00581 -0.1309,-0.00586 h -9.3379 c -0.015,-8.854e-4 -0.03,-0.00131 -0.045,0 z"
           style="fill:#333333;stroke-linecap:round;stroke-linejoin:round;paint-order:stroke markers fill"
           id="path95" />
        <g
           id="path62"
           transform="translate(-1.2984716,-1.5223137e-4)">
          <path
             style="color:#000000;fill:#333333;stroke-linecap:round;stroke-linejoin:round;-inkscape-stroke:none;paint-order:stroke markers fill"
             d="m 1233.0156,9.8886719 a 1.5,1.5 0 0 0 -1.5,1.5000001 1.5,1.5 0 0 0 1.5,1.5 h 0.6504 a 1.5,1.5 0 0 0 1.5,-1.5 1.5,1.5 0 0 0 -1.5,-1.5000001 z"
             id="path91" />
          <path
             style="color:#000000;fill:#595959;stroke-linecap:round;stroke-linejoin:round;-inkscape-stroke:none;paint-order:stroke markers fill"
             d="m 1233.0166,11.38885 h 0.6491"
             id="path92" />
        </g>
      </g>
      <g
         id="g99"
         transform="matrix(1.3387482,-1.3388142,1.3387482,1.3388142,-395.91605,1637.5041)">
        <path
           d="m 1218.9414,9.8886719 c -0.015,0.00131 -0.029,0.00434 -0.043,0.00781 -0.029,0.00631 -0.056,0.016842 -0.082,0.03125 l -1.041,0.6015621 -0.6875,0.396484 -0.098,0.05664 c -0.057,0.033 -0.106,0.07759 -0.1445,0.130859 -0.038,0.05314 -0.065,0.113685 -0.078,0.177735 -0.013,0.06375 -0.013,0.129607 0,0.193359 0.013,0.06473 0.04,0.125967 0.078,0.179688 0.039,0.05256 0.088,0.09647 0.1445,0.128906 l 0.096,0.05469 0.6895,0.398438 1.0449,0.603515 c 0.026,0.01445 0.053,0.02498 0.082,0.03125 0.029,0.007 0.058,0.0096 0.088,0.0078 h 9.334 c 0.1312,1.46e-4 0.2619,-0.01693 0.3887,-0.05078 0.1265,-0.03414 0.248,-0.0847 0.3613,-0.150391 0.1135,-0.06552 0.2179,-0.145631 0.3106,-0.238281 0.093,-0.09266 0.1727,-0.197068 0.2382,-0.310547 0.066,-0.113358 0.1163,-0.234835 0.1504,-0.361328 0.034,-0.126778 0.051,-0.257452 0.051,-0.388672 0,-0.04368 0,-0.08735 -0.01,-0.130859 0,-0.0432 -0.01,-0.08621 -0.018,-0.128907 -0.01,-0.04335 -0.016,-0.08636 -0.027,-0.128906 -0.011,-0.04222 -0.024,-0.08392 -0.039,-0.125 -0.015,-0.04109 -0.032,-0.08149 -0.051,-0.121094 -0.019,-0.03927 -0.039,-0.07772 -0.061,-0.115234 -0.022,-0.03812 -0.045,-0.07527 -0.07,-0.111328 -0.025,-0.03565 -0.052,-0.07019 -0.08,-0.103516 -0.028,-0.03316 -0.057,-0.06509 -0.088,-0.0957 -0.031,-0.03067 -0.063,-0.05999 -0.096,-0.08789 -0.034,-0.02823 -0.069,-0.05495 -0.1055,-0.08008 -0.035,-0.02501 -0.072,-0.04847 -0.1094,-0.07031 -0.037,-0.02184 -0.076,-0.04204 -0.1152,-0.06055 -0.04,-0.01869 -0.08,-0.03563 -0.1211,-0.050781 -0.041,-0.014834 -0.083,-0.027868 -0.125,-0.039063 -0.043,-0.010998 -0.086,-0.020122 -0.1289,-0.027344 -0.043,-0.00772 -0.086,-0.013586 -0.1289,-0.017578 -0.043,-0.00386 -0.087,-0.00581 -0.1309,-0.00586 h -9.3379 c -0.015,-8.854e-4 -0.03,-0.00131 -0.045,0 z"
           style="fill:#333333;stroke-linecap:round;stroke-linejoin:round;paint-order:stroke markers fill"
           id="path96" />
        <g
           id="g98"
           transform="translate(-1.2984716,-1.5223137e-4)">
          <path
             style="color:#000000;fill:#333333;stroke-linecap:round;stroke-linejoin:round;-inkscape-stroke:none;paint-order:stroke markers fill"
             d="m 1233.0156,9.8886719 a 1.5,1.5 0 0 0 -1.5,1.5000001 1.5,1.5 0 0 0 1.5,1.5 h 0.6504 a 1.5,1.5 0 0 0 1.5,-1.5 1.5,1.5 0 0 0 -1.5,-1.5000001 z"
             id="path97" />
          <path
             style="color:#000000;fill:#595959;stroke-linecap:round;stroke-linejoin:round;-inkscape-stroke:none;paint-order:stroke markers fill"
             d="m 1233.0166,11.38885 h 0.6491"
             id="path98" />
        </g>
      </g>
    </g>
  </g>
</svg>
