<?xml version="1.0" encoding="UTF-8" standalone="no"?>
<!-- Created with Inkscape (http://www.inkscape.org/) -->

<svg
   width="24"
   height="24"
   viewBox="0 0 24 24"
   version="1.1"
   id="svg1"
   inkscape:version="1.3 (0e150ed6c4, 2023-07-21)"
   sodipodi:docname="menu(Proyect).svg"
   xmlns:inkscape="http://www.inkscape.org/namespaces/inkscape"
   xmlns:sodipodi="http://sodipodi.sourceforge.net/DTD/sodipodi-0.dtd"
   xmlns="http://www.w3.org/2000/svg"
   xmlns:svg="http://www.w3.org/2000/svg">
  <sodipodi:namedview
     id="namedview1"
     pagecolor="#ffffff"
     bordercolor="#000000"
     borderopacity="0.25"
     inkscape:showpageshadow="2"
     inkscape:pageopacity="0.0"
     inkscape:pagecheckerboard="0"
     inkscape:deskcolor="#d1d1d1"
     inkscape:document-units="px"
     showguides="true"
     inkscape:zoom="1.3418693"
     inkscape:cx="912.9056"
     inkscape:cy="-16.395039"
     inkscape:window-width="1346"
     inkscape:window-height="720"
     inkscape:window-x="0"
     inkscape:window-y="0"
     inkscape:window-maximized="1"
     inkscape:current-layer="svg1">
    <inkscape:page
       x="0"
       y="0"
       width="24"
       height="24"
       id="page55"
       margin="0"
       bleed="0" />
  </sodipodi:namedview>
  <defs
     id="defs1" />
  <g
     inkscape:label="Layer 1"
     inkscape:groupmode="layer"
     id="layer1"
     transform="translate(-994)">
    <path
       style="color:#000000;fill:#333333;stroke-width:0.635931;stroke-linecap:round;stroke-linejoin:round;-inkscape-stroke:none;paint-order:stroke markers fill"
       d="m 1009.4304,2.8361795 a 1.5898264,1.5898264 0 0 0 -0.1627,2.2419034 l 5.0403,5.8301911 -5.0403,5.833918 a 1.5898264,1.5898264 0 0 0 0.1639,2.243146 1.5898264,1.5898264 0 0 0 2.242,-0.163951 l 5.9394,-6.874757 a 1.5899854,1.5899854 0 0 0 0,-2.0791952 l -5.9382,-6.8685465 a 1.5898264,1.5898264 0 0 0 -2.2432,-0.1627088 z"
       id="path59" />
    <path
       style="color:#000000;fill:#333333;stroke-width:0.635931;stroke-linecap:round;stroke-linejoin:round;-inkscape-stroke:none;paint-order:stroke markers fill"
       d="m 1006.9985,5.8295245 c -6.2443,1.1698718 -9.75395,4.8920055 -11.44801,8.1826375 -0.84706,1.645316 -1.27218,3.174036 -1.44947,4.321098 -0.0887,0.573532 -0.12509,1.026767 -0.0845,1.490462 0.0204,0.231849 -0.0458,0.426252 0.30799,0.971285 0.17678,0.272517 0.68985,0.757895 1.38365,0.75641 0.6938,-0.0015 1.06779,-0.371174 1.24452,-0.571344 a 1.5899854,1.5899854 0 0 0 0.22111,-0.322934 c 0,0 0.54213,-1.088137 2.10525,-2.30649 1.56326,-1.218352 4.04686,-2.464969 7.99266,-2.415791 a 1.5898264,1.5898264 0 0 0 1.6085,-1.569953 1.5898264,1.5898264 0 0 0 -1.5687,-1.609699 c -3.7316,-0.04651 -6.5439,0.94741 -8.58515,2.164896 1.41855,-2.463613 3.93605,-5.0436064 8.85705,-5.9655754 a 1.5898264,1.5898264 0 0 0 1.2707,-1.855625 1.5898264,1.5898264 0 0 0 -1.8556,-1.2693771 z"
       id="path60" />
  </g>
</svg>
