<?xml version="1.0" encoding="UTF-8" standalone="no"?>
<!-- Created with Inkscape (http://www.inkscape.org/) -->

<svg
   width="24"
   height="24"
   viewBox="0 0 24 24"
   version="1.1"
   id="svg1"
   xmlns="http://www.w3.org/2000/svg"
   xmlns:svg="http://www.w3.org/2000/svg">
  <defs
     id="defs1" />
  <g
     id="layer1"
     transform="translate(-1520)">
    <g
       id="path68"
       transform="matrix(1.8138318,0,0,1.8138318,-1246.6394,-8.9761659)">
      <path
         style="color:#000000;fill:#333333;stroke-linecap:round;stroke-linejoin:round;-inkscape-stroke:none;paint-order:stroke markers fill"
         d="m 1532,5.8867187 a 0.2756871,0.2756871 0 0 0 -0.2578,0.1796875 l -1.377,3.6835938 -3.9297,0.1699219 a 0.2756871,0.2756871 0 0 0 -0.1582,0.4921871 l 3.0762,2.447266 -1.0508,3.789062 a 0.2756871,0.2756871 0 0 0 0.418,0.304688 l 3.2793,-2.169922 3.2793,2.169922 a 0.2756871,0.2756871 0 0 0 0.418,-0.304688 l -1.0508,-3.789062 3.0762,-2.447266 a 0.2756871,0.2756871 0 0 0 -0.1582,-0.4921871 L 1533.6348,9.75 1532.2578,6.0664062 A 0.2756871,0.2756871 0 0 0 1532,5.8867187 Z m 0,1.0625 1.1836,3.1640623 a 0.2756871,0.2756871 0 0 0 0.2461,0.177735 l 3.375,0.148437 -2.6445,2.101563 a 0.2756871,0.2756871 0 0 0 -0.094,0.291015 l 0.9024,3.253906 -2.8165,-1.863281 a 0.2756871,0.2756871 0 0 0 -0.3046,0 l -2.8164,1.863281 0.9023,-3.253906 a 0.2756871,0.2756871 0 0 0 -0.094,-0.291015 l -2.6445,-2.101563 3.375,-0.148437 a 0.2756871,0.2756871 0 0 0 0.2461,-0.177735 z"
         id="path73" />
      <path
         style="color:#000000;fill:#333333;stroke-linecap:round;stroke-linejoin:round;-inkscape-stroke:none;paint-order:stroke markers fill"
         d="m 1532,6.1624341 1.4411,3.8540359 4.1108,0.179623 -3.2201,2.561548 1.0994,3.965049 -3.4312,-2.270912 -3.4312,2.270912 1.0994,-3.965049 -3.2201,-2.561548 4.1108,-0.179623 z"
         id="path74" />
    </g>
  </g>
</svg>
