<?xml version="1.0" encoding="UTF-8" standalone="no"?>
<!-- Created with Inkscape (http://www.inkscape.org/) -->

<svg
   width="24"
   height="24"
   viewBox="0 0 24 24"
   version="1.1"
   id="svg1"
   xmlns="http://www.w3.org/2000/svg"
   xmlns:svg="http://www.w3.org/2000/svg">
  <defs
     id="defs1" />
  <g
     id="layer1"
     transform="translate(-1554)">
    <path
       style="color:#000000;fill:#333333;stroke-linecap:round;stroke-linejoin:round;-inkscape-stroke:none;paint-order:stroke markers fill"
       d="m 1562.7695,-3.1933594 a 1.3571157,1.3571157 0 0 0 -1.0586,1.1269531 l -1.3457,8.9941407 -8.8047,2.2773437 a 1.3571157,1.3571157 0 0 0 -0.2656,2.5273439 l 8.1387,4.058594 -0.5547,9.078125 a 1.3571157,1.3571157 0 0 0 2.3223,1.033203 l 6.375,-6.486328 8.4609,3.333984 a 1.3571157,1.3571157 0 0 0 1.7012,-1.890625 l -4.1992,-8.066406 5.7851,-7.0175784 a 1.3571157,1.3571157 0 0 0 -1.2715,-2.2011718 l -8.9687,1.4999999 -4.8867,-7.6699218 a 1.3571157,1.3571157 0 0 0 -1.4278,-0.5976563 z m 1.0879,5.1171875 3.4199,5.3671875 a 1.3571157,1.3571157 0 0 0 1.3692,0.609375 l 6.2754,-1.0507812 -4.0469,4.9101566 A 1.3571157,1.3571157 0 0 0 1570.7188,13.25 l 2.9375,5.644531 -5.9219,-2.332031 a 1.3571157,1.3571157 0 0 0 -1.4649,0.310547 l -4.4609,4.539062 0.3887,-6.351562 a 1.3571157,1.3571157 0 0 0 -0.7481,-1.296875 l -5.6972,-2.839844 6.1621,-1.5937499 a 1.3571157,1.3571157 0 0 0 1.0039,-1.1132812 z"
       id="path1"
       transform="matrix(0.72071047,0.15376232,-0.15376232,0.72071047,439.21023,-236.44565)" />
  </g>
</svg>
