<?xml version="1.0" encoding="UTF-8" standalone="no"?>
<!-- Created with Inkscape (http://www.inkscape.org/) -->

<svg
   width="48"
   height="48"
   viewBox="0 0 48 48"
   version="1.1"
   id="svg1"
   xmlns="http://www.w3.org/2000/svg"
   xmlns:svg="http://www.w3.org/2000/svg">
  <defs
     id="defs1" />
  <g
     id="layer1"
     transform="translate(-936)">
    <path
       d="m 948.98519,12.209314 c -0.35859,1.75e-4 -0.71493,0.05686 -1.05588,0.167982 -0.3397,0.110212 -0.66002,0.27307 -0.94922,0.48261 -0.29069,0.210993 -0.54626,0.466562 -0.75725,0.757249 -0.20955,0.289204 -0.3724,0.60952 -0.48261,0.949225 -0.11107,0.340946 -0.16781,0.697286 -0.16799,1.055881 v 28.951388 0.016 c 1.8e-4,0.358594 0.0569,0.714934 0.16799,1.055879 0.11018,0.339706 0.27306,0.660022 0.48261,0.949227 0.20955,0.289363 0.46329,0.544004 0.7519,0.754581 l 0.006,0.0027 c 0.008,0.0045 0.0178,0.0088 0.0266,0.01337 0.2812,0.201283 0.59137,0.358626 0.9199,0.466614 0.34008,0.110894 0.6955,0.16758 1.0532,0.16798 h 0.0213 10.98276 0.032 10.98275 0.0213 c 0.006,1.4e-5 0.0112,1.4e-5 0.016,0 0.3458,-0.0023 0.68924,-0.05714 1.01856,-0.162647 0.007,-0.0018 0.0123,-0.0036 0.0187,-0.0054 0.004,-0.0018 0.007,-0.0036 0.0112,-0.0054 0.33457,-0.109005 0.65027,-0.26911 0.9359,-0.474613 l 0.006,-0.0027 c 0.28859,-0.21062 0.54232,-0.46525 0.75192,-0.75458 0.20954,-0.289208 0.3724,-0.609518 0.4826,-0.949227 0.11107,-0.340949 0.16781,-0.697283 0.16799,-1.05588 v -0.05066 -28.916725 c 2e-5,-0.119344 -0.007,-0.238604 -0.0187,-0.357293 -0.0123,-0.118211 -0.0313,-0.235696 -0.056,-0.351961 -0.025,-0.117105 -0.0561,-0.232801 -0.0934,-0.346627 -0.0369,-0.113255 -0.0796,-0.224507 -0.12791,-0.333297 -0.0478,-0.10848 -0.10113,-0.21438 -0.15999,-0.317295 -0.0597,-0.102871 -0.12465,-0.202548 -0.19463,-0.298633 -0.0707,-0.09634 -0.14629,-0.188898 -0.22665,-0.277303 -0.08,-0.08881 -0.16448,-0.173363 -0.25331,-0.253304 -0.0885,-0.08034 -0.18096,-0.156001 -0.27729,-0.226642 -0.0961,-0.07003 -0.19577,-0.135015 -0.29863,-0.194644 -0.10292,-0.0588 -0.20884,-0.112204 -0.3173,-0.159981 -0.10884,-0.04845 -0.22004,-0.09117 -0.33329,-0.127985 -0.11386,-0.03718 -0.22954,-0.06832 -0.34664,-0.09333 -0.11632,-0.02477 -0.23375,-0.04347 -0.35196,-0.05598 -0.11863,-0.01243 -0.23795,-0.01868 -0.35729,-0.01866 -0.3586,1.76e-4 -0.71493,0.05685 -1.05588,0.167982 -0.33971,0.110212 -0.66001,0.273067 -0.94923,0.48261 -0.29068,0.210996 -0.54624,0.466557 -0.75725,0.757249 -0.20954,0.289208 -0.37239,0.609515 -0.4826,0.949226 -0.11119,0.340948 -0.16781,0.69728 -0.16799,1.055881 v 25.557031 h -4.18921 V 15.622261 c 3e-5,-0.119344 -0.007,-0.238604 -0.0187,-0.357293 -0.0123,-0.118211 -0.0313,-0.235697 -0.056,-0.351961 -0.0249,-0.117105 -0.0561,-0.232802 -0.0934,-0.346627 -0.0369,-0.113255 -0.0796,-0.224506 -0.12792,-0.333296 -0.0478,-0.10848 -0.10113,-0.214382 -0.15997,-0.317296 -0.0597,-0.102871 -0.12464,-0.202549 -0.19465,-0.298633 -0.0707,-0.09634 -0.14629,-0.1889 -0.22664,-0.277302 -0.08,-0.0888 -0.16449,-0.173364 -0.2533,-0.253305 -0.0885,-0.08034 -0.18096,-0.156 -0.27731,-0.226642 -0.0961,-0.07003 -0.19576,-0.135016 -0.29863,-0.194644 -0.10291,-0.0588 -0.20882,-0.112203 -0.31729,-0.159981 -0.10884,-0.04845 -0.22004,-0.09117 -0.3333,-0.127985 -0.11386,-0.03718 -0.22952,-0.06831 -0.34663,-0.09333 -0.11631,-0.02477 -0.23374,-0.04347 -0.35195,-0.05598 -0.11864,-0.01243 -0.23795,-0.01868 -0.3573,-0.01866 -0.35859,1.75e-4 -0.71493,0.05686 -1.05589,0.16798 -0.33971,0.110213 -0.66001,0.273069 -0.94922,0.482612 -0.29068,0.210994 -0.54625,0.466559 -0.75725,0.757248 -0.20954,0.289207 -0.37239,0.609517 -0.4826,0.949226 -0.11118,0.340946 -0.16781,0.697283 -0.16799,1.055881 v 25.557106 h -4.18886 V 15.622261 c 3e-5,-0.119344 -0.007,-0.238605 -0.0187,-0.357293 -0.0123,-0.118211 -0.0313,-0.235697 -0.056,-0.351961 -0.025,-0.117091 -0.0561,-0.232802 -0.0934,-0.346627 -0.0369,-0.113255 -0.0796,-0.224508 -0.12792,-0.333296 -0.0478,-0.10848 -0.10112,-0.214382 -0.15997,-0.317296 -0.0597,-0.102871 -0.12464,-0.202549 -0.19464,-0.298633 -0.0706,-0.09634 -0.1463,-0.1889 -0.22665,-0.277302 -0.0799,-0.0888 -0.1645,-0.173364 -0.2533,-0.253305 -0.0885,-0.08034 -0.18097,-0.156 -0.27731,-0.226642 -0.0961,-0.07003 -0.19577,-0.135016 -0.29863,-0.194644 -0.10291,-0.0588 -0.20883,-0.112203 -0.31729,-0.159981 -0.10884,-0.04845 -0.22005,-0.09117 -0.3333,-0.127985 -0.11385,-0.03718 -0.22953,-0.06831 -0.34664,-0.09333 -0.11631,-0.02477 -0.23374,-0.04347 -0.35195,-0.05598 -0.11863,-0.01243 -0.23795,-0.01868 -0.35729,-0.01866 z"
       style="fill:#333333;stroke-width:1.36518;stroke-linecap:round;stroke-linejoin:round;paint-order:stroke markers fill"
       id="path40" />
    <path
       d="M 958.6241,2.9647675e-5 C 958.32606,4.3169953e-4 958.02934,0.0398739 957.74153,0.11734912 c -0.28825,0.0763966 -0.56524,0.19024338 -0.8239,0.33862834 -0.25831,0.14963145 -0.49586,0.33250548 -0.70659,0.54393839 -0.21144,0.21072725 -0.39431,0.44828405 -0.54394,0.70658655 -0.14839,0.2586623 -0.26223,0.5356576 -0.33864,0.8239069 -0.0774,0.2878036 -0.11685,0.5845176 -0.11726,0.8825668 h -8.82035 c -0.29804,4.018e-4 -0.59476,0.039844 -0.88256,0.1173194 -0.28825,0.076396 -0.56525,0.1902434 -0.8239,0.3386282 -0.25831,0.1496312 -0.49586,0.3325059 -0.7066,0.5439384 -0.21142,0.2107268 -0.39429,0.4482845 -0.54394,0.7065868 -0.14837,0.2586615 -0.26222,0.5356579 -0.33862,0.8239067 -0.0775,0.287803 -0.11699,0.5845177 -0.11726,0.8825663 3.9e-4,0.2980488 0.0399,0.5947648 0.11726,0.8825671 0.0764,0.2882482 0.19025,0.565245 0.33862,0.8239069 0.14965,0.2583021 0.33252,0.4958602 0.54394,0.7065854 0.21074,0.2114337 0.44829,0.3943081 0.7066,0.5439389 0.25865,0.1483848 0.53565,0.2622308 0.8239,0.3386288 0.2878,0.07747 0.58452,0.116914 0.88256,0.117323 h 27.21826 c 0.29805,-4.01e-4 0.59477,-0.03985 0.88256,-0.117323 0.28826,-0.0764 0.56526,-0.190244 0.82391,-0.3386288 0.2583,-0.1496308 0.49586,-0.3325052 0.70659,-0.5439389 0.21142,-0.2107252 0.3943,-0.4482833 0.54395,-0.7065854 0.14837,-0.2586619 0.26221,-0.5356587 0.33861,-0.8239069 0.0775,-0.2878023 0.117,-0.5845183 0.11727,-0.8825671 -3.9e-4,-0.2980486 -0.0399,-0.5947633 -0.11727,-0.8825663 -0.0764,-0.2882488 -0.19024,-0.5652452 -0.33861,-0.8239067 -0.14965,-0.2583023 -0.33253,-0.49586 -0.54395,-0.7065868 -0.21073,-0.2114325 -0.44829,-0.3943072 -0.70659,-0.5439384 -0.25865,-0.1483848 -0.53565,-0.2622312 -0.82391,-0.3386282 -0.28779,-0.077475 -0.58451,-0.1169181 -0.88256,-0.1173194 h -8.82034 c 4.1e-4,-0.1050263 -0.004,-0.2100153 -0.0136,-0.3146312 -0.0112,-0.1046318 -0.0254,-0.2087304 -0.0454,-0.3119646 -0.0192,-0.103263 -0.0433,-0.2055839 -0.072,-0.3066319 -0.0283,-0.1010069 -0.0611,-0.2006578 -0.0987,-0.2986329 -0.0381,-0.098811 -0.0808,-0.1957944 -0.12791,-0.2906338 -0.0473,-0.093878 -0.0989,-0.1855209 -0.15466,-0.2746356 -0.0555,-0.08891 -0.11508,-0.1752145 -0.17864,-0.2586373 -0.0629,-0.083909 -0.12956,-0.1648748 -0.19998,-0.2426392 -0.0712,-0.078084 -0.14589,-0.1528232 -0.22396,-0.22397465 -0.0778,-0.0703524 -0.15873,-0.13708147 -0.24265,-0.19997744 -0.0835,-0.0634891 -0.16972,-0.12310083 -0.25863,-0.17864645 -0.0892,-0.0557509 -0.18077,-0.10735612 -0.27465,-0.15464906 -0.0949,-0.0471478 -0.19181,-0.089856 -0.29063,-0.12798558 -0.098,-0.0374563 -0.19763,-0.0703758 -0.29863,-0.0986558 -0.10102,-0.0287023 -0.20336,-0.052726 -0.30663,-0.07199164 C 961.89885,0.03878194 961.79475,0.0236575 961.69013,0.01336149 961.58554,0.00407563 961.48052,-3.695089e-4 961.37549,2.382703e-5 Z"
       style="fill:#333333;stroke-width:1.36518;stroke-linecap:round;stroke-linejoin:round;paint-order:stroke markers fill"
       id="path41" />
  </g>
</svg>
